<svg width="69" height="66" viewBox="0 0 69 66" fill="none" xmlns="http://www.w3.org/2000/svg">
<g id="Group 412">
<path id="Vector" fill-rule="evenodd" clip-rule="evenodd" d="M11.6654 55.4634C11.6654 54.7931 11.1291 54.4915 10.3583 54.4915H5.37806V56.4219H10.3583C11.1761 56.4286 11.6654 56.1203 11.6654 55.4634ZM13.2808 51.2137C13.9239 51.2436 14.5518 51.4197 15.1167 51.7286C15.6816 52.0375 16.1686 52.4711 16.5408 52.9964C16.913 53.5218 17.1606 54.1251 17.2647 54.7604C17.3688 55.3958 17.3267 56.0465 17.1416 56.6632C16.938 57.3581 16.5437 57.9821 16.0035 58.4643C15.4632 58.9465 14.7986 59.2676 14.0851 59.3913L17.4366 65.1289H11.7123C10.7069 63.3929 9.57407 61.5429 8.46809 59.7264H5.37806V65.1289H0.317383V51.2137H13.2808Z" fill="#1C1C1B"/>
<path id="Vector_2" fill-rule="evenodd" clip-rule="evenodd" d="M28.9789 51.2137L34.596 65.1222H29.1934L28.6036 63.6945H22.6112L22.0951 65.1222H16.8735L22.7855 51.2137H28.9789ZM25.5471 55.8521L23.925 60.2894H27.1826L25.5471 55.8521Z" fill="#1C1C1B"/>
<path id="Vector_3" fill-rule="evenodd" clip-rule="evenodd" d="M47.9414 51.9108C49.6439 52.5208 51.2928 54.3775 51.2928 56.0331L45.6557 56.4084C45.5883 56.071 45.4429 55.754 45.231 55.4828C45.0192 55.2116 44.7469 54.9938 44.4358 54.8467C43.8123 54.5222 43.1173 54.3595 42.4146 54.3735C41.7119 54.3876 41.024 54.5779 40.414 54.9271C39.0265 55.9325 38.8791 57.2731 38.9729 58.6137C38.9701 59.175 39.1034 59.7286 39.3614 60.227C39.6194 60.7255 39.9944 61.154 40.4542 61.4758C41.2988 62.0054 43.4504 62.4008 44.7575 61.3552C45.2026 61.01 45.5398 60.5449 45.7294 60.0146L51.4336 60.4503C51.2577 61.4971 50.7854 62.4714 50.0726 63.2579C49.3597 64.0444 48.4363 64.61 47.4118 64.8876C44.4157 65.8729 38.7584 65.9332 35.7622 63.7414C33.986 62.4813 33.0811 59.2438 33.4765 57.1324C33.5905 55.4231 34.9177 52.6213 37.2234 51.8706C39.7772 50.5099 45.3608 50.6775 47.9414 51.9108Z" fill="#1C1C1B"/>
<path id="Vector_4" fill-rule="evenodd" clip-rule="evenodd" d="M67.4735 51.2137V54.5719H57.4929V56.5291H65.7174V59.8605H57.4929V61.7976H68.1304V65.1222H52.439V51.2137H67.4735Z" fill="#1C1C1B"/>
<path id="Vector_5" d="M39.918 15.0047C39.8549 14.9376 39.8141 14.8527 39.8009 14.7616C39.7877 14.6705 39.8028 14.5775 39.8442 14.4953C39.8872 14.4126 39.9515 14.3429 40.0305 14.2934C40.1094 14.2439 40.2002 14.2164 40.2933 14.2137C40.423 14.2171 40.5507 14.2467 40.6687 14.3009L40.8363 13.7982C36.642 12.2133 32.0135 12.2133 27.8192 13.7982L27.7656 13.8652L27.9667 14.3612C28.1399 14.2451 28.3509 14.1996 28.5566 14.2339C28.6649 14.2674 28.7591 14.3358 28.8247 14.4282C28.8721 14.5011 28.9006 14.5845 28.9076 14.6712C28.9146 14.7578 28.8999 14.8447 28.8649 14.9243C28.7141 15.0743 28.5271 15.1829 28.322 15.2393L28.4426 15.5342C28.4426 15.5342 32.6721 12.8531 40.0721 15.3532L40.2732 15.4605L40.3536 15.2259C40.199 15.1723 40.0525 15.0978 39.918 15.0047ZM30.0111 14.5154C29.9747 14.5979 29.9171 14.6694 29.8441 14.7224C29.7711 14.7754 29.6853 14.808 29.5955 14.817C29.4652 14.8331 29.3336 14.7996 29.2269 14.7232C29.16 14.6657 29.1075 14.5932 29.0738 14.5117C29.04 14.4302 29.0258 14.3419 29.0325 14.254C29.0433 14.1726 29.0725 14.0947 29.1177 14.0262C29.163 13.9577 29.2232 13.9004 29.2939 13.8585C29.3931 13.8058 29.5067 13.7865 29.6177 13.8034C29.7288 13.8203 29.8315 13.8725 29.9105 13.9523C29.9809 14.0258 30.0281 14.1185 30.0459 14.2187C30.0638 14.3188 30.0517 14.4221 30.0111 14.5154ZM33.4564 13.8987C33.148 14.2473 32.6855 14.0998 32.3236 14.2003C31.8477 14.2741 31.3584 14.321 30.8825 14.4282C30.7864 14.438 30.6893 14.4269 30.5979 14.3957C30.5065 14.3644 30.4229 14.3138 30.3529 14.2473C30.3005 14.1887 30.2677 14.1151 30.2593 14.037C30.2509 13.9588 30.2672 13.88 30.306 13.8116C30.5741 13.4295 31.0433 13.4965 31.3919 13.3893C31.8975 13.3004 32.4077 13.24 32.9201 13.2083C33.0122 13.206 33.1038 13.2226 33.1891 13.2572C33.2744 13.2918 33.3517 13.3436 33.4162 13.4094C33.473 13.4766 33.5075 13.5599 33.5147 13.6476C33.5219 13.7353 33.5015 13.8231 33.4564 13.8987ZM34.7098 13.9523C34.6532 14.011 34.5839 14.056 34.5072 14.0839C34.4306 14.1118 34.3485 14.1218 34.2674 14.1132C34.1739 14.0986 34.0861 14.0591 34.013 13.999C33.9399 13.9389 33.8842 13.8603 33.8518 13.7714C33.8296 13.6982 33.8223 13.6214 33.8303 13.5454C33.8384 13.4694 33.8617 13.3958 33.8988 13.329C33.9451 13.2628 34.0049 13.2071 34.0742 13.1656C34.1435 13.124 34.2207 13.0974 34.3009 13.0877C34.4045 13.0862 34.5064 13.1136 34.5953 13.1669C34.6841 13.2202 34.7562 13.2972 34.8037 13.3893C34.8434 13.4823 34.8557 13.5848 34.8391 13.6845C34.8225 13.7843 34.7776 13.8772 34.7098 13.9523ZM38.3495 14.2272C37.954 14.6628 37.344 14.2272 36.895 14.2741C36.4459 14.321 36.0437 14.1601 35.5946 14.1199C35.5187 14.1106 35.4457 14.0848 35.3809 14.0443C35.316 14.0038 35.2608 13.9495 35.2192 13.8853C35.1867 13.8328 35.1656 13.774 35.1576 13.7127C35.1495 13.6515 35.1545 13.5892 35.1723 13.5301C35.2214 13.4321 35.2972 13.3499 35.3908 13.293C35.4845 13.2361 35.5923 13.2068 35.7018 13.2083C36.483 13.2542 37.2589 13.3663 38.021 13.5435C38.1126 13.5691 38.1964 13.6167 38.2653 13.6821C38.3343 13.7475 38.3862 13.8288 38.4165 13.9188C38.4335 14.0264 38.4096 14.1364 38.3495 14.2272ZM39.5627 14.6025C39.5069 14.6795 39.4314 14.7401 39.3441 14.7778C39.2568 14.8155 39.161 14.8291 39.0667 14.817C38.9744 14.8039 38.8875 14.7657 38.8154 14.7066C38.7433 14.6475 38.6888 14.5698 38.6578 14.4819C38.629 14.402 38.62 14.3164 38.6317 14.2323C38.6433 14.1482 38.6753 14.0682 38.7248 13.9993C38.7906 13.9191 38.878 13.8595 38.9766 13.8274C39.0751 13.7953 39.1808 13.7922 39.2812 13.8183C39.4137 13.859 39.5246 13.9506 39.5895 14.073C39.6301 14.1563 39.6489 14.2486 39.6442 14.3412C39.6395 14.4338 39.6115 14.5237 39.5627 14.6025Z" fill="#1C1C1B"/>
<path id="Vector_6" d="M28.7914 14.4283C28.7258 14.3358 28.6316 14.2675 28.5233 14.2339C28.3968 14.2138 28.2675 14.222 28.1447 14.2579C28.0218 14.2938 27.9084 14.3566 27.8128 14.4417C27.7506 14.4954 27.7036 14.5646 27.6765 14.6423C27.6495 14.7199 27.6433 14.8033 27.6586 14.8841C27.6773 14.9707 27.7162 15.0516 27.7721 15.1203C27.8281 15.189 27.8994 15.2436 27.9803 15.2795C28.139 15.2821 28.2966 15.2519 28.4431 15.1908C28.5895 15.1296 28.7218 15.0389 28.8316 14.9243C28.8666 14.8448 28.8813 14.7578 28.8743 14.6712C28.8673 14.5846 28.8388 14.5011 28.7914 14.4283ZM28.6305 14.7969C28.4743 14.9269 28.2874 15.0146 28.0876 15.0516C28.0523 15.0456 28.0189 15.0317 27.9898 15.0107C27.9608 14.9898 27.9369 14.9626 27.92 14.931C27.8898 14.8557 27.8898 14.7717 27.92 14.6964C28.0675 14.5087 28.3892 14.3612 28.5903 14.5355C28.6179 14.5725 28.636 14.6156 28.643 14.6612C28.65 14.7068 28.6457 14.7534 28.6305 14.7969Z" fill="#1C1C1B"/>
<path id="Vector_7" d="M40.9639 14.5891C40.8887 14.4791 40.789 14.388 40.6728 14.3229C40.5565 14.2578 40.4267 14.2204 40.2936 14.2137C40.206 14.2208 40.1216 14.2504 40.0488 14.2998C39.976 14.3491 39.9171 14.4165 39.8781 14.4953C39.8367 14.5775 39.8215 14.6705 39.8347 14.7616C39.8479 14.8527 39.8888 14.9376 39.9518 15.0047C40.1686 15.1801 40.4372 15.279 40.7159 15.2862C40.8103 15.2438 40.8947 15.1821 40.9639 15.1052C41.0068 15.026 41.0292 14.9373 41.0292 14.8472C41.0292 14.7571 41.0068 14.6684 40.9639 14.5891ZM40.7427 14.9175C40.7062 14.972 40.6581 15.0177 40.602 15.0516C40.3945 15.0242 40.1992 14.9382 40.0389 14.8036C39.9987 14.7366 40.0389 14.6897 40.0389 14.6159C40.0664 14.5737 40.1042 14.5392 40.1488 14.5157C40.1934 14.4922 40.2433 14.4806 40.2936 14.4819C40.3904 14.4845 40.4854 14.508 40.5722 14.5508C40.659 14.5936 40.7354 14.6547 40.7964 14.7299C40.8048 14.7944 40.7931 14.86 40.7628 14.9175H40.7427Z" fill="#1C1C1B"/>
<path id="Vector_8" d="M40.2932 15.5006C39.905 15.2995 39.5068 15.1183 39.1001 14.9577C37.9307 14.5319 36.6981 14.3053 35.4537 14.2874C35.3266 14.298 35.1988 14.298 35.0717 14.2874H33.5903C32.0744 14.2711 30.5711 14.5654 29.1731 15.1521C28.8514 15.3263 28.4224 15.3531 28.228 15.7017C28.1832 15.7904 28.1633 15.8896 28.1703 15.9888C28.1774 16.0879 28.2113 16.1833 28.2683 16.2647C28.336 16.3365 28.4203 16.3905 28.5138 16.422C28.6073 16.4536 28.7071 16.4617 28.8045 16.4457C30.6608 15.7241 32.646 15.3932 34.636 15.4738C36.377 15.4607 38.1049 15.7745 39.7302 16.3988C39.8161 16.4434 39.9115 16.4668 40.0084 16.4668C40.1052 16.4668 40.2006 16.4434 40.2865 16.3988C40.3476 16.3589 40.3988 16.3056 40.4359 16.2428C40.4731 16.18 40.4954 16.1096 40.501 16.0368C40.5193 15.937 40.5095 15.834 40.4729 15.7394C40.4362 15.6447 40.374 15.5621 40.2932 15.5006ZM40.186 16.124C40.1377 16.1575 40.0822 16.1792 40.024 16.1873C39.9658 16.1955 39.9065 16.1899 39.8508 16.1709C37.529 15.3216 35.0427 15.0188 32.5849 15.2861C31.2643 15.4069 29.9671 15.7114 28.7308 16.191C28.687 16.1975 28.6424 16.1948 28.5998 16.1833C28.5571 16.1718 28.5173 16.1516 28.4827 16.124C28.4477 16.0817 28.4239 16.0314 28.4133 15.9775C28.4028 15.9236 28.4059 15.868 28.4224 15.8156C28.5967 15.514 28.9519 15.5207 29.2201 15.3733C30.8556 14.5689 32.5715 14.5287 34.2472 14.4818C36.1106 14.4818 37.9405 14.5689 39.7503 15.4939C39.9447 15.5609 40.2061 15.6414 40.2664 15.876C40.276 15.9202 40.2743 15.9661 40.2614 16.0095C40.2486 16.0528 40.2249 16.0922 40.1927 16.124H40.186Z" fill="#1C1C1B"/>
<path id="Vector_9" d="M49.5432 31.8222V30.2202L48.0016 30.0593L47.7804 28.3903L49.2282 27.8407L48.8126 26.2923L47.2844 26.547L46.6141 24.992L47.8742 24.0871L47.0766 22.6929L45.6556 23.3632L44.63 22.0226L45.6556 20.7758L44.496 19.6431L43.2894 20.6217L41.9489 19.5961L42.6192 18.1818L41.2317 17.3775L40.2932 18.6376L38.7382 17.9673L38.9862 16.4927L37.4378 16.0771L36.8815 17.5316L35.2125 17.3105L35.0516 15.7621H33.4496L33.2887 17.3105L31.6197 17.5316L31.0701 16.0771L29.5217 16.4927L29.7697 18.0277L28.2281 18.6376L27.3165 17.3775L25.929 18.1818L26.559 19.5961L25.2185 20.6217L24.0052 19.6431L22.8657 20.7758L23.8444 21.9824L22.8188 23.3229L21.4045 22.6527L20.6069 24.0469L21.8603 24.9517L21.19 26.5068L19.6551 26.2655L19.2462 27.8139L20.694 28.3635L20.4728 30.0325L18.9312 30.1934V31.7954L20.4728 31.9563L20.694 33.6253L19.2462 34.1749L19.6551 35.7233L21.19 35.482L21.8603 37.037L20.6069 37.9486L21.4045 39.3361L22.8188 38.6658L23.8444 40.0064L22.8657 41.2934L23.9985 42.4262L25.2051 41.4475L26.5456 42.4731L25.9156 43.8874L27.3031 44.6448L28.2281 43.4048L29.7831 44.0751L29.5351 45.61L31.0835 46.0256L31.6331 44.5711L33.3021 44.7923L33.463 46.3339H35.065L35.2259 44.7923L36.8949 44.5711L37.4378 45.9854L38.9862 45.5698L38.7382 44.0349L40.2932 43.3646L41.2048 44.6448L42.5923 43.8472L41.9221 42.4329L43.2626 41.4073L44.4691 42.3859L45.6556 41.2934L44.6769 40.0869L45.7025 38.7463L47.1235 39.4166L47.9211 38.0291L46.661 37.1175L47.3313 35.5624L48.8595 35.8037L49.2751 34.2553L47.8273 33.7057L48.0485 32.0367L49.5432 31.8222ZM34.2607 43.9745C31.7001 43.9759 29.1968 43.2177 27.0672 41.796C24.9377 40.3743 23.2777 38.3529 22.2972 35.9875C21.3167 33.6222 21.0598 31.0192 21.5591 28.5078C22.0583 25.9964 23.2911 23.6895 25.1017 21.879C26.9122 20.0684 29.2191 18.8356 31.7305 18.3364C34.2419 17.8372 36.8449 18.094 39.2102 19.0745C41.5756 20.055 43.597 21.715 45.0187 23.8445C46.4404 25.9741 47.1985 28.4775 47.1972 31.038C47.1954 34.4684 45.8319 37.7578 43.4062 40.1835C40.9805 42.6092 37.6911 43.9728 34.2607 43.9745Z" fill="#1C1C1B"/>
<path id="Vector_10" fill-rule="evenodd" clip-rule="evenodd" d="M27.464 40.9314C27.4591 40.9574 27.4601 40.9842 27.4671 41.0098C27.4741 41.0353 27.4868 41.059 27.5042 41.0789C27.5823 41.14 27.6766 41.177 27.7754 41.1853C27.8742 41.1937 27.9733 41.173 28.0606 41.1258C28.1788 41.0729 28.2911 41.0077 28.3957 40.9314H29.066C29.0529 41.0832 29.0712 41.236 29.1196 41.3805C29.2135 41.7559 29.3542 42.3658 29.8636 42.3658C30.0915 42.1513 29.9977 41.7693 30.3261 41.6352C30.3872 41.612 30.4523 41.6015 30.5176 41.6042C30.5828 41.607 30.6469 41.6229 30.7058 41.6511C30.7647 41.6793 30.8172 41.7192 30.8603 41.7683C30.9033 41.8174 30.936 41.8747 30.9562 41.9368C31.0434 42.2653 30.8289 42.4597 30.6345 42.6406C30.4893 42.7228 30.3267 42.7693 30.1601 42.7763C29.9934 42.7833 29.8275 42.7506 29.676 42.6809C29.4048 42.5196 29.1767 42.2952 29.0109 42.0268C28.8452 41.7584 28.7468 41.4538 28.7242 41.1392C27.9466 41.5011 27.9935 41.5145 27.6383 41.5548C27.498 41.5539 27.3594 41.525 27.2304 41.4697C27.1015 41.4144 26.9849 41.334 26.8876 41.233C26.8179 41.1429 26.7656 41.0406 26.7334 40.9314H27.464ZM40.4542 40.9314C40.5416 40.9724 40.634 41.0017 40.729 41.0185C40.8819 41.0338 41.0358 41.0035 41.1714 40.9314H41.7479C41.6649 41.0333 41.573 41.1276 41.473 41.2129C41.2327 41.3557 40.9583 41.4311 40.6787 41.4311C40.3992 41.4311 40.1248 41.3557 39.8845 41.2129C39.5225 41.2129 39.7035 41.6553 39.5627 41.8832C39.4096 42.3172 39.1049 42.6814 38.7047 42.9088C38.4853 43.0344 38.2348 43.0954 37.9822 43.0847C37.7296 43.074 37.4851 42.9921 37.277 42.8484C37.1749 42.7603 37.1017 42.6435 37.067 42.5131C37.0323 42.3828 37.0378 42.245 37.0827 42.1178C37.1227 42.0331 37.185 41.961 37.2629 41.909C37.3409 41.857 37.4315 41.8273 37.525 41.8229C37.6176 41.8099 37.7118 41.827 37.7939 41.8716C37.876 41.9163 37.9415 41.9861 37.9808 42.0709C38.1417 42.3792 37.6189 42.6809 38.1082 42.8216C38.5975 42.9624 38.7785 42.5468 38.9394 42.2452C39.1062 41.8417 39.1062 41.3885 38.9394 40.985L40.4542 40.9314Z" fill="#1C1C1B"/>
<path id="Vector_11" fill-rule="evenodd" clip-rule="evenodd" d="M29.4951 38.7329C29.3168 39.4573 29.1803 40.1913 29.0863 40.9314H28.416C28.8584 40.6164 28.8047 40.2611 28.9589 39.7584L29.2002 38.7329H29.4951ZM34.6027 38.7329L34.4687 38.8267C34.2393 38.9269 33.9917 38.9787 33.7414 38.9787C33.4911 38.9787 33.2435 38.9269 33.0142 38.8267C32.9 38.7935 32.7881 38.7532 32.679 38.7061L34.6027 38.7329ZM41.5335 38.7329C41.3591 38.8052 41.1799 38.8657 40.9973 38.9138C40.5031 39.0116 39.9993 39.052 39.4958 39.0345C39.6567 39.6646 39.8042 40.6231 40.4544 40.9314H38.906C38.8658 40.7907 38.8256 40.6566 38.7987 40.5225C38.6915 40.1405 38.2491 38.7329 38.2491 38.7329H41.5335ZM26.7067 40.9314C26.6629 40.7895 26.6629 40.6376 26.7067 40.4957C26.8006 40.3147 26.9548 40.1137 27.1961 40.1405C27.2602 40.1283 27.3265 40.1337 27.3879 40.1561C27.4493 40.1785 27.5034 40.2171 27.5446 40.2678C27.6116 40.3885 27.6988 40.5561 27.6049 40.6968C27.5521 40.7689 27.5093 40.8478 27.4776 40.9314H26.7067ZM41.1716 40.9314L41.2654 40.8912C41.3928 40.5091 40.7895 40.4086 40.9973 39.9595C41.0546 39.8669 41.1408 39.7957 41.2425 39.757C41.3443 39.7182 41.456 39.714 41.5603 39.745C41.8218 39.8321 41.9156 40.0801 42.0094 40.3013C41.9962 40.5349 41.904 40.7571 41.748 40.9314H41.1716Z" fill="#1C1C1B"/>
<path id="Vector_12" fill-rule="evenodd" clip-rule="evenodd" d="M27.0956 33.2499C27.5581 34.8988 28.1881 37.1778 28.1881 37.1778C27.5983 36.8628 28.0139 37.4459 26.9414 38.1966C26.7379 38.3438 26.5033 38.4421 26.2557 38.4839C26.0081 38.5257 25.7542 38.51 25.5137 38.4379C25.3346 38.3604 25.1736 38.2465 25.0409 38.1034C24.9082 37.9603 24.8067 37.7912 24.7428 37.6068C24.7135 37.4695 24.7133 37.3276 24.7422 37.1902C24.771 37.0528 24.8284 36.923 24.9104 36.8091C24.9754 36.7054 25.0748 36.6279 25.1912 36.5899C25.3075 36.5519 25.4335 36.556 25.5472 36.6014C25.6827 36.65 25.7967 36.7449 25.8689 36.8695C25.9293 37.0974 25.8689 37.2247 25.6209 37.3856C25.4869 37.4459 25.3394 37.466 25.3327 37.5867C25.3327 37.9151 25.6813 38.0626 25.9159 38.1765C26.1158 38.2135 26.3223 38.1868 26.5063 38.1002C26.6902 38.0136 26.8424 37.8715 26.9414 37.6939C27.0818 37.2556 27.0676 36.7824 26.9012 36.3533L25.9561 33.2499H27.0956ZM34.2006 33.2499V33.3706H33.8119C32.8466 33.3706 32.1227 33.3706 31.1307 33.3706C30.9229 33.3706 30.8224 33.3706 30.8157 33.2566H29.4751C29.6596 33.6426 29.7861 34.0536 29.8504 34.4765C29.8831 34.6105 29.9011 34.7476 29.9041 34.8854C29.9577 35.5557 29.837 35.9244 29.4684 37.4526L29.16 38.7932H29.4751L29.6762 37.9017C29.7365 37.6202 29.9041 37.0236 29.9041 37.0236C29.9041 37.0236 30.0582 36.4137 30.1655 36.0249L30.2191 35.8037C30.8023 36.8628 31.5061 38.2637 32.659 38.7932H34.5827C34.723 38.6687 34.8337 38.5144 34.9067 38.3416C34.9798 38.1688 35.0134 37.9819 35.005 37.7945C35.0078 37.679 34.986 37.5642 34.9409 37.4579C34.8958 37.3515 34.8285 37.256 34.7436 37.1778C34.6772 37.0765 34.5806 36.9987 34.4675 36.9553C34.3544 36.912 34.2305 36.9054 34.1135 36.9365C34.0487 36.9479 33.9879 36.9756 33.9367 37.017C33.8855 37.0583 33.8457 37.112 33.8209 37.1729C33.7961 37.2339 33.7872 37.3001 33.795 37.3654C33.8028 37.4308 33.827 37.4931 33.8655 37.5465C34.1135 37.9755 34.5358 37.3722 34.7167 37.8749C34.7525 37.9661 34.7588 38.0662 34.7347 38.1612C34.7107 38.2562 34.6575 38.3412 34.5827 38.4044C34.3238 38.5807 34.006 38.6481 33.6979 38.5921C32.0222 38.4849 31.1307 35.0329 31.0168 34.7111C30.7687 33.9336 30.7218 33.766 30.7218 33.766H34.1939C34.1939 33.766 34.3079 33.6588 34.6363 34.5168C35.2262 36.2059 36.8952 38.3441 38.2291 38.7597H41.5336C41.9456 38.5714 42.3274 38.3229 42.6664 38.0224C42.9412 37.6805 43.3367 37.3923 43.3836 36.903C43.6585 36.1911 43.6868 35.4075 43.464 34.6776C43.34 34.3302 43.1329 34.0185 42.8606 33.7696C42.5884 33.5207 42.2593 33.3423 41.9022 33.2499C41.6164 33.1985 41.3227 33.2096 41.0415 33.2825C40.7604 33.3554 40.4983 33.4883 40.2734 33.6722C40.0489 33.8632 39.8823 34.1132 39.7923 34.3939C39.7023 34.6746 39.6925 34.9748 39.764 35.2608C39.8092 35.4492 39.9068 35.621 40.0456 35.7563C40.1844 35.8915 40.3587 35.9846 40.5483 36.0249C40.6864 36.0453 40.8274 36.0308 40.9585 35.9828C41.0896 35.9348 41.2066 35.8548 41.299 35.7501C41.3459 35.5825 41.4062 35.4686 41.299 35.301C41.2304 35.2235 41.1425 35.1657 41.0443 35.1334C40.7762 35.0329 40.5885 35.2608 40.374 35.3814C40.0858 35.3345 40.1327 35.0329 40.0858 34.8318C40.0815 34.6437 40.1204 34.4571 40.1994 34.2863C40.2784 34.1155 40.3954 33.9651 40.5416 33.8465C40.8766 33.6422 41.2767 33.5727 41.6609 33.6521C42.0966 33.9202 42.539 34.2017 42.6328 34.7648C42.8272 34.9189 42.72 35.187 42.8138 35.3814C42.8684 35.8924 42.7883 36.4088 42.5813 36.8792C42.3743 37.3496 42.0478 37.7576 41.6341 38.0626C41.3221 38.2992 40.9646 38.4689 40.584 38.5612C40.2034 38.6535 39.8079 38.6663 39.4222 38.5988C39.4222 38.5988 38.6916 36.0048 37.9207 33.2365H36.7745V33.3572H35.4071C35.4035 33.317 35.4035 33.2766 35.4071 33.2365L34.2006 33.2499ZM36.8818 33.7392L38.2224 38.3776C37.8691 38.2139 37.5694 37.9537 37.3577 37.6269C36.2048 36.1724 35.4541 34.3157 35.4541 33.7392H36.8818Z" fill="#1C1C1B"/>
<path id="Vector_13" fill-rule="evenodd" clip-rule="evenodd" d="M25.9561 33.2499L24.6155 28.5579C24.5314 28.1999 24.3099 27.8893 23.9989 27.6932C23.9117 27.653 23.6704 27.6396 23.6704 27.539C23.6704 27.4385 23.7173 26.7816 25.011 27.2307C25.1652 27.043 25.0512 26.661 25.145 26.3057C25.44 25.1729 25.8153 24.2412 26.928 23.886C27.3868 23.6897 27.8972 23.649 28.3814 23.77C28.8655 23.891 29.2967 24.1672 29.6092 24.5562C29.8116 24.826 29.9575 25.1337 30.0381 25.4611C30.1986 25.9075 30.267 26.3818 30.2392 26.8553C30.2226 27.4049 30.0877 27.9445 29.8438 28.4372C29.3762 29.3239 28.7384 30.1097 27.967 30.7497C27.8865 30.8369 28.0608 30.9508 28.1211 31.0111C29.0616 31.2976 29.862 31.9235 30.3666 32.7673L30.561 33.1561L33.3762 21.7611C33.4406 21.3962 33.4675 21.0256 33.4566 20.6552C33.2333 20.3105 32.9651 19.9972 32.659 19.7235C33.6715 19.6366 34.6896 19.6366 35.7021 19.7235C35.6552 19.8441 35.0318 20.3938 34.9447 20.6686C34.8444 21.0558 34.8216 21.459 34.8776 21.855C34.9983 22.0561 35.8697 25.4209 35.8697 25.4209C36.3134 24.8528 36.8142 24.3317 37.3644 23.8659C37.9355 23.3785 38.6347 23.0656 39.3787 22.9646C40.1227 22.8636 40.88 22.9787 41.5604 23.2961C41.8565 23.4464 42.1296 23.6383 42.3715 23.8659C42.5659 24.1352 42.7342 24.4225 42.8742 24.7238C42.9477 24.8903 43.006 25.063 43.0485 25.2399C43.2237 25.8952 43.179 26.5899 42.9211 27.2173C42.8184 27.5093 42.6589 27.7781 42.4518 28.0082C42.2447 28.2382 41.9942 28.4251 41.7146 28.5579C41.4302 28.7192 41.1041 28.7921 40.7781 28.767C40.4521 28.7419 40.141 28.6201 39.8847 28.4171C39.6462 28.2735 39.4553 28.0627 39.3361 27.8111C39.2168 27.5595 39.1745 27.2783 39.2144 27.0028C39.23 26.7968 39.3004 26.5987 39.4182 26.429C39.5361 26.2593 39.6971 26.1242 39.8847 26.0376C40.0411 25.9565 40.2146 25.9142 40.3908 25.9142C40.5669 25.9142 40.7405 25.9565 40.8968 26.0376C41.0573 26.0969 41.1891 26.2153 41.2651 26.3686C41.3411 26.5218 41.3557 26.6984 41.3057 26.862C41.2782 26.9599 41.2179 27.0452 41.1349 27.1038C41.0519 27.1624 40.9513 27.1906 40.8499 27.1838C40.7641 27.1809 40.6801 27.1583 40.6045 27.1176C40.529 27.0769 40.4638 27.0192 40.4142 26.9492C40.307 26.8218 40.4142 26.6341 40.2534 26.547C40.0925 26.4599 39.8579 26.7749 39.7841 27.0296C39.7496 27.1609 39.7506 27.299 39.7871 27.4298C39.8236 27.5606 39.8943 27.6793 39.9919 27.7736C40.1278 27.9403 40.3087 28.0644 40.5132 28.1309C40.7176 28.1975 40.9369 28.2038 41.1448 28.149C41.8889 28.0417 42.1905 27.3849 42.3514 26.661C42.4509 25.9998 42.2999 25.3253 41.9279 24.7698C41.5559 24.2143 40.9897 23.8178 40.3405 23.6581C39.087 23.4771 38.1084 24.0803 36.5601 25.9571C36.3679 26.1985 36.2224 26.4735 36.1311 26.7682C36.1311 26.976 37.0628 30.1867 37.9073 33.1963H36.7746L35.5412 28.5042C35.4135 28.8182 35.3257 29.147 35.2798 29.4829C35.1536 30.7381 35.1919 32.0045 35.3938 33.2499H34.2006C34.0074 32.1436 33.9645 31.0162 34.0733 29.8984C34.249 28.7379 34.5922 27.609 35.0921 26.547L33.651 21.4126V21.607C33.47 22.3778 31.2246 31.9562 30.9028 33.0622C30.8953 33.1133 30.8953 33.1653 30.9028 33.2164H29.5622C29.2387 32.5248 28.7859 31.9014 28.2284 31.3798C27.9536 31.3329 27.7122 31.0111 27.3972 31.1653C27.1666 31.3367 26.9142 31.4765 26.6465 31.5809C26.6934 31.7283 26.8878 32.3986 27.1157 33.2164L25.9561 33.2499ZM28.8316 25.9504C29.0013 26.3787 29.0834 26.8366 29.0731 27.2971C29.0627 27.7577 28.9601 28.2114 28.7713 28.6316C28.5222 29.4896 27.9817 30.2338 27.243 30.7363C27.0257 30.9215 26.7787 31.0688 26.5124 31.172L25.5472 27.6195C25.5472 26.5939 25.5472 25.3271 26.5728 24.7976C26.7462 24.6985 26.9376 24.6347 27.1358 24.6099C27.9804 24.4959 28.5434 25.1595 28.8651 25.9504H28.8316Z" fill="#1C1C1B"/>
<path id="Vector_14" d="M34.261 8.08054C34.4523 8.00139 34.6573 7.96041 34.8643 7.95988C34.5828 8.02021 34.3616 8.36206 34.0599 8.2213C33.8908 8.11616 33.7163 8.01995 33.5371 7.93307C33.7784 7.88615 34.013 8.10735 34.261 8.08054Z" fill="#1C1C1B"/>
<path id="Vector_15" d="M29.7833 8.36206C29.5487 8.49612 29.3677 8.90499 29.0326 8.82456C28.8633 8.76067 28.6882 8.71352 28.5098 8.6838C28.7846 8.55644 29.0728 8.79104 29.3677 8.56315C29.5018 8.48941 29.6224 8.36206 29.7833 8.36206Z" fill="#1C1C1B"/>
<path id="Vector_16" d="M39.402 8.67037C39.5829 8.67037 39.8108 8.59664 39.9985 8.67037C39.717 8.67037 39.469 8.91838 39.2076 8.77092C38.9462 8.62345 38.9059 8.46258 38.7183 8.34863C38.973 8.34863 39.1539 8.63016 39.3886 8.65697L39.402 8.67037Z" fill="#1C1C1B"/>
<path id="Vector_17" d="M35.7759 9.61556C35.7759 9.82335 35.9569 10.0512 35.8965 10.2322C35.8429 9.97751 35.5614 9.78313 35.6284 9.50161C35.6954 9.22009 35.863 9.12625 35.93 8.91846C35.9703 9.15976 35.7625 9.40777 35.7759 9.58875V9.61556Z" fill="#1C1C1B"/>
<path id="Vector_18" d="M32.8802 9.73618C32.8132 9.93057 32.6456 10.0914 32.5786 10.2925C32.5786 10.0311 32.7797 9.79651 32.7261 9.5485C32.6446 9.36973 32.6034 9.17522 32.6054 8.97876C32.6725 9.24017 32.9808 9.46807 32.8802 9.73618Z" fill="#1C1C1B"/>
<path id="Vector_19" d="M31.0434 9.96402C31.1104 10.1249 31.2847 10.2657 31.2713 10.4399C31.1373 10.2053 30.7753 10.0445 30.8088 9.72942C30.869 9.5448 30.9182 9.35679 30.9563 9.16638C31.0903 9.42109 30.8624 9.69591 31.0434 9.96402Z" fill="#1C1C1B"/>
<path id="Vector_20" d="M37.6595 9.96408C37.5455 10.1518 37.3243 10.2657 37.2305 10.4467C37.2305 10.1853 37.5187 10.011 37.5388 9.7764C37.5589 9.5418 37.4651 9.37423 37.5388 9.19995C37.5388 9.46807 37.7935 9.69596 37.646 9.99089L37.6595 9.96408Z" fill="#1C1C1B"/>
<path id="Vector_21" d="M25.0844 9.36751C25.0866 9.59183 25.0709 9.81597 25.0375 10.0378C25.0257 9.86381 24.9896 9.69233 24.9302 9.52838C24.7828 9.63563 24.6956 9.85682 24.4677 9.8166C24.2398 9.77639 24.1728 9.63563 23.9985 9.64903C24.1527 9.51497 24.3739 9.70936 24.5482 9.64903C24.7224 9.58871 24.8364 9.35411 25.0241 9.26697C25.0643 9.26697 25.0777 9.31389 25.0844 9.3474V9.36751Z" fill="#1C1C1B"/>
<path id="Vector_22" d="M44.0405 9.6893C44.1946 9.6893 44.3555 9.56195 44.5097 9.6893C44.2483 9.6893 43.9935 10.0446 43.7522 9.73622L43.6048 9.56865C43.5512 9.56865 43.5579 9.62228 43.531 9.64909L43.4774 10.0647C43.4299 9.82873 43.4164 9.58722 43.4372 9.34746V9.30054C43.6785 9.38097 43.7656 9.63568 44.0137 9.70271L44.0405 9.6893Z" fill="#1C1C1B"/>
<path id="Vector_23" d="M28.1614 10.6276C28.0974 10.789 28.0546 10.958 28.034 11.1304C27.9067 10.8555 28.101 10.6008 27.967 10.3796C27.8329 10.1584 27.7123 10.0512 27.7056 9.8501C27.8396 10.0847 28.2753 10.2992 28.1614 10.6276Z" fill="#1C1C1B"/>
<path id="Vector_24" d="M40.4949 10.5271C40.4949 10.688 40.5753 10.9427 40.4949 11.1236C40.4949 10.8622 40.1999 10.574 40.4211 10.2925C40.5418 10.1316 40.7094 10.0244 40.8166 9.8501C40.8166 10.0981 40.5418 10.2724 40.5083 10.5204L40.4949 10.5271Z" fill="#1C1C1B"/>
<path id="Vector_25" d="M26.2177 10.4601C26.3183 10.688 26.5194 10.8757 26.5663 11.1304C26.3585 10.8824 26.0636 10.7215 26.0435 10.4132C26.0704 10.2332 26.0704 10.0502 26.0435 9.87024C26.1909 10.0713 26.1306 10.259 26.2043 10.4735L26.2177 10.4601Z" fill="#1C1C1B"/>
<path id="Vector_26" d="M42.3041 10.7282L41.9287 11.1237C41.9756 10.8489 42.237 10.6344 42.2974 10.3596C42.2943 10.1879 42.3383 10.0186 42.4247 9.87024C42.3443 10.1786 42.5789 10.4467 42.3041 10.7282Z" fill="#1C1C1B"/>
<path id="Vector_27" d="M44.8649 9.25359C44.8113 9.17316 44.6839 9.16645 44.5901 9.15305L44.6973 9.07261C44.7723 9.00561 44.8289 8.92056 44.8617 8.82554C44.8946 8.73052 44.9026 8.62867 44.885 8.52968C44.8619 8.43507 44.8173 8.34709 44.7545 8.27266C44.6917 8.19822 44.6124 8.13936 44.5231 8.1007V8.06718C44.6048 7.97811 44.6575 7.86633 44.6742 7.74663C44.691 7.62694 44.671 7.50497 44.6169 7.39689C44.5635 7.31223 44.4919 7.24059 44.4072 7.18724C44.3225 7.13388 44.227 7.10016 44.1276 7.08856C44.1898 6.98309 44.215 6.85987 44.1992 6.73844C44.1835 6.61701 44.1276 6.50433 44.0405 6.41827C43.9761 6.34525 43.8947 6.28929 43.8035 6.25537C43.7123 6.22146 43.6141 6.21064 43.5176 6.22389C43.541 6.12033 43.5357 6.01237 43.5022 5.91162C43.4687 5.81088 43.4084 5.72119 43.3277 5.65222C43.247 5.58325 43.149 5.53761 43.0443 5.52023C42.9395 5.50285 42.832 5.51439 42.7334 5.5536C42.7397 5.45187 42.7196 5.35024 42.675 5.25861C42.6303 5.16699 42.5627 5.08849 42.4787 5.03077C42.3892 4.97451 42.2869 4.94191 42.1814 4.93605C42.0759 4.93018 41.9706 4.95125 41.8754 4.99726C41.8573 4.90157 41.8152 4.81203 41.7531 4.73701C41.6909 4.662 41.6108 4.60394 41.5202 4.56827C41.4278 4.53608 41.329 4.52659 41.2322 4.54059C41.1354 4.55458 41.0433 4.59167 40.9638 4.64871C40.9257 4.56208 40.8685 4.48516 40.7966 4.42366C40.7246 4.36216 40.6398 4.31765 40.5483 4.29346C40.4478 4.2768 40.345 4.28324 40.2474 4.31228C40.1498 4.34131 40.0602 4.39218 39.9852 4.46103C39.9581 4.37745 39.9148 4.30001 39.8579 4.23313C39.7942 4.16362 39.7145 4.11077 39.6257 4.07922C39.5369 4.04767 39.4417 4.03838 39.3484 4.05215C39.2609 4.07022 39.1778 4.10562 39.1041 4.15627C39.0305 4.20692 38.9677 4.27179 38.9195 4.34708C38.8658 4.29346 38.8323 4.25324 38.772 4.19962C38.6701 4.14079 38.5545 4.10981 38.4369 4.10981C38.3192 4.10981 38.2036 4.14079 38.1017 4.19962C38.1405 4.08245 38.144 3.95646 38.1119 3.8373C38.0797 3.71813 38.0132 3.61105 37.9207 3.52933C37.8272 3.45512 37.7142 3.40936 37.5954 3.39748C37.4766 3.38559 37.3568 3.40809 37.2504 3.4623C37.2123 3.43419 37.169 3.4137 37.1231 3.40197C37.0925 3.29365 37.0335 3.19548 36.9522 3.11768C36.8708 3.03988 36.7702 2.98529 36.6606 2.95958C36.5528 2.94086 36.4421 2.94878 36.3382 2.98266C36.2342 3.01655 36.1401 3.07536 36.064 3.15397C36.0271 3.06582 35.9705 2.98733 35.8984 2.92457C35.8264 2.86181 35.7408 2.81645 35.6484 2.79201C35.5507 2.7695 35.449 2.77116 35.352 2.79686C35.2551 2.82255 35.1659 2.87151 35.0921 2.93947H35.0452C34.9683 2.78938 34.8583 2.65874 34.7235 2.55741C34.7235 2.39654 34.6698 2.20216 34.643 2.03458H35.1189C35.1379 2.03167 35.1559 2.02399 35.1711 2.01227C35.1863 2.00055 35.1984 1.98517 35.2061 1.96756V1.16321C35.1323 1.00904 34.891 1.10288 34.7302 1.07607V0.559949C34.7179 0.531595 34.6967 0.508043 34.6698 0.49292H33.8052L33.7314 0.553246C33.7314 0.74763 33.7314 0.915202 33.7314 1.08277C33.5773 1.08277 33.3561 1.01574 33.2689 1.16321V1.90053C33.2683 1.93013 33.2779 1.95904 33.2963 1.98229C33.3146 2.00553 33.3405 2.02165 33.3695 2.02788H33.8253L33.7314 2.55741C33.6578 2.61501 33.5904 2.68016 33.5303 2.75179C33.47 2.80542 33.4633 2.90596 33.3896 2.93277C33.3179 2.86273 33.2301 2.81141 33.134 2.78335C33.0378 2.7553 32.9362 2.75136 32.8381 2.7719C32.74 2.79244 32.6486 2.83683 32.5717 2.90112C32.4949 2.96542 32.4351 3.04766 32.3976 3.14056C32.325 3.06478 32.2356 3.00711 32.1366 2.97218C32.0377 2.93725 31.9319 2.92605 31.8278 2.93947C31.7125 2.95944 31.6054 3.01253 31.5197 3.09227C31.434 3.17201 31.3734 3.27496 31.3452 3.38857H31.305C31.2245 3.4556 31.1575 3.38857 31.0771 3.38857C30.9704 3.36815 30.8604 3.37396 30.7565 3.40548C30.6526 3.43701 30.5579 3.49331 30.4805 3.56954C30.4126 3.65257 30.3655 3.75069 30.3434 3.85566C30.3212 3.96064 30.3246 4.0694 30.3532 4.17281C30.2212 4.11323 30.0734 4.09802 29.932 4.12943C29.7907 4.16085 29.6633 4.23721 29.5689 4.34708C29.5218 4.27516 29.4629 4.21171 29.3947 4.1594C29.3203 4.10509 29.2344 4.06893 29.1436 4.0538C29.0528 4.03867 28.9597 4.04499 28.8718 4.07226C28.7845 4.10669 28.7053 4.15908 28.6395 4.22605C28.5737 4.29303 28.5227 4.37308 28.4898 4.46103C28.4179 4.38953 28.3296 4.33684 28.2326 4.30761C28.1355 4.27839 28.0328 4.27352 27.9334 4.29346C27.8423 4.3167 27.7579 4.36093 27.6869 4.42261C27.6159 4.4843 27.5603 4.56172 27.5246 4.64871C27.4461 4.5885 27.3535 4.54949 27.2556 4.53542C27.1577 4.52136 27.0578 4.53271 26.9656 4.56839C26.8734 4.60407 26.7919 4.66288 26.729 4.73916C26.666 4.81544 26.6238 4.90663 26.6063 5.00396L26.4655 4.95034C26.3731 4.92654 26.2761 4.92635 26.1836 4.94977C26.0911 4.9732 26.0059 5.01949 25.936 5.0844C25.8707 5.14501 25.8191 5.21876 25.7844 5.30079C25.7497 5.38282 25.7329 5.47127 25.7349 5.5603C25.7349 5.5603 25.6813 5.5603 25.6611 5.5603C25.5657 5.54311 25.4675 5.55 25.3754 5.58034C25.2833 5.61068 25.2002 5.66351 25.1336 5.73405C25.0671 5.80459 25.0192 5.89062 24.9942 5.98434C24.9693 6.07807 24.9681 6.17653 24.9909 6.27081H24.8501C24.756 6.27958 24.6655 6.31108 24.5863 6.36259C24.5071 6.4141 24.4416 6.48408 24.3954 6.56651C24.3493 6.64894 24.3238 6.74135 24.3213 6.83579C24.3188 6.93024 24.3392 7.02388 24.3809 7.10867L24.1798 7.15559C24.099 7.19093 24.0273 7.24436 23.9704 7.31176C23.9134 7.37917 23.8727 7.45874 23.8514 7.54436C23.8306 7.64736 23.8343 7.75381 23.8623 7.85511C23.8902 7.95641 23.9416 8.04972 24.0122 8.12751C23.9229 8.16462 23.8441 8.22339 23.7831 8.29852C23.7221 8.37365 23.6808 8.46279 23.6628 8.55788C23.6449 8.65297 23.6509 8.75104 23.6803 8.84324C23.7097 8.93544 23.7616 9.01888 23.8313 9.08602C23.8313 9.08602 23.9251 9.13964 23.9385 9.17986C23.8908 9.17675 23.843 9.18347 23.7981 9.19962C23.7531 9.21576 23.7119 9.24098 23.6771 9.2737C23.6447 9.32249 23.6226 9.37739 23.6123 9.43503C23.6019 9.49267 23.6034 9.55182 23.6168 9.60884C23.7971 10.1059 24.1303 10.533 24.5686 10.8288C24.572 11.0449 24.6327 11.2562 24.7446 11.4411C24.8565 11.626 25.0155 11.7778 25.2054 11.8811C25.2905 11.9218 25.3859 11.936 25.4792 11.9216C25.5725 11.9073 25.6592 11.8651 25.7282 11.8007L25.9628 12.0219C26.2067 12.2622 26.4973 12.4498 26.8167 12.5732C27.1361 12.6966 27.4774 12.753 27.8195 12.7391C27.5849 12.7989 27.3801 12.9418 27.243 13.1413C27.1937 13.2334 27.173 13.3381 27.1838 13.4421C27.1945 13.546 27.2362 13.6444 27.3034 13.7244C27.3595 13.7895 27.4318 13.8386 27.513 13.8669C27.5942 13.8951 27.6814 13.9015 27.7659 13.8853C28.4764 13.6641 29.1467 13.463 29.884 13.2887C33.2081 12.5339 36.6705 12.647 39.9383 13.6172C40.3807 13.6842 40.87 14.1132 41.2789 13.7378C41.3296 13.6718 41.3665 13.5962 41.3872 13.5156C41.4079 13.4349 41.4121 13.3509 41.3995 13.2686C41.3443 13.1365 41.2583 13.0196 41.1487 12.9274C41.0391 12.8353 40.9091 12.7708 40.7695 12.7391C41.1564 12.7432 41.5394 12.6611 41.8907 12.4988C42.242 12.3365 42.5527 12.098 42.8004 11.8007C42.8779 11.86 42.9704 11.8965 43.0676 11.906C43.1647 11.9155 43.2626 11.8976 43.3501 11.8543C43.5295 11.7477 43.6786 11.5968 43.783 11.416C43.8875 11.2353 43.9438 11.0308 43.9466 10.8221C44.2747 10.579 44.5543 10.2766 44.7711 9.93058C44.846 9.83653 44.8943 9.72406 44.9108 9.60495C44.9273 9.48584 44.9114 9.36448 44.8649 9.25359ZM44.6102 8.44925C44.6396 8.50143 44.655 8.56029 44.655 8.62017C44.655 8.68005 44.6396 8.73891 44.6102 8.79109C44.577 8.83865 44.5342 8.87872 44.4845 8.90874C44.4349 8.93875 44.3795 8.95804 44.322 8.96537C44.2526 8.96599 44.1846 8.94588 44.1267 8.90763C44.0688 8.86937 44.0237 8.81471 43.997 8.75063C43.9704 8.68656 43.9635 8.61599 43.9772 8.54797C43.9909 8.47995 44.0246 8.41756 44.074 8.36881C44.1153 8.33186 44.1648 8.30528 44.2184 8.2913C44.272 8.27731 44.3282 8.27631 44.3823 8.28838C44.4292 8.29843 44.4735 8.31786 44.5127 8.34551C44.5519 8.37315 44.585 8.40844 44.6102 8.44925ZM44.2684 7.32316C44.3475 7.3643 44.4111 7.43021 44.4493 7.51084C44.4742 7.56201 44.4872 7.61816 44.4872 7.67506C44.4872 7.73196 44.4742 7.78812 44.4493 7.83928C44.4083 7.89234 44.3534 7.93297 44.2907 7.95664C44.228 7.98031 44.1599 7.98609 44.0941 7.97334C43.9992 7.94934 43.9174 7.88921 43.8662 7.80577C43.832 7.74152 43.8188 7.6682 43.8284 7.59608C43.8381 7.52395 43.87 7.45665 43.9198 7.4036C43.9682 7.36509 44.0258 7.33989 44.087 7.33048C44.1481 7.32108 44.2106 7.3278 44.2684 7.34997V7.32316ZM43.5981 6.45849C43.6485 6.45202 43.6997 6.45646 43.7483 6.47149C43.7969 6.48652 43.8416 6.5118 43.8796 6.54563C43.9286 6.589 43.9641 6.64554 43.9819 6.70851C43.9998 6.77149 43.9991 6.83825 43.9801 6.90088C43.9573 6.96643 43.9161 7.02404 43.8614 7.06682C43.8067 7.1096 43.7409 7.13576 43.6718 7.14218C43.5743 7.14049 43.481 7.10221 43.4104 7.03494C43.3601 6.98957 43.3258 6.92922 43.3125 6.86281C43.2992 6.79641 43.3077 6.72749 43.3367 6.66628C43.3633 6.6193 43.3999 6.57874 43.4439 6.54747C43.4879 6.5162 43.5382 6.49497 43.5914 6.4853L43.5981 6.45849ZM42.72 5.88204C42.7526 5.84684 42.7919 5.81859 42.8357 5.79901C42.8795 5.77943 42.9268 5.76891 42.9747 5.76809C43.0628 5.76846 43.148 5.79924 43.216 5.85523C43.2592 5.89839 43.291 5.95161 43.3086 6.01011C43.3261 6.06861 43.3289 6.13055 43.3166 6.19037C43.2901 6.27868 43.233 6.35471 43.1557 6.40487C43.0761 6.44897 42.9834 6.46323 42.8943 6.44508C42.8325 6.42703 42.7769 6.39256 42.7332 6.34534C42.6895 6.29812 42.6595 6.23992 42.6463 6.17697C42.6386 6.13007 42.6405 6.08209 42.6521 6.03598C42.6636 5.98988 42.6844 5.94661 42.7133 5.90885L42.72 5.88204ZM41.9156 5.29889C41.9823 5.21544 42.0781 5.16036 42.1838 5.14472C42.2473 5.14576 42.3095 5.1629 42.3646 5.19456C42.4197 5.22621 42.4659 5.27133 42.4988 5.3257C42.5146 5.36971 42.5217 5.41641 42.5195 5.46314C42.5173 5.50986 42.5059 5.5557 42.486 5.59802C42.466 5.64035 42.438 5.67833 42.4034 5.70982C42.3688 5.7413 42.3283 5.76565 42.2843 5.7815C42.2403 5.79734 42.1936 5.80436 42.1469 5.80216C42.1001 5.79995 42.0543 5.78857 42.012 5.76865C41.9697 5.74873 41.9317 5.72067 41.9002 5.68607C41.8687 5.65148 41.8444 5.61102 41.8285 5.56701C41.827 5.47974 41.8554 5.39459 41.9089 5.3257L41.9156 5.29889ZM41.1247 4.82969C41.1723 4.79234 41.2285 4.76729 41.2881 4.75677C41.3477 4.74625 41.409 4.75057 41.4666 4.76936C41.5498 4.80283 41.6186 4.86452 41.6609 4.94364C41.6916 5.00575 41.7023 5.07583 41.6915 5.14425C41.6806 5.21267 41.6489 5.27606 41.6006 5.3257C41.5545 5.37047 41.4972 5.40213 41.4348 5.41745C41.3724 5.43276 41.307 5.43117 41.2454 5.41284C41.1863 5.39457 41.1332 5.3606 41.0919 5.31457C41.0506 5.26853 41.0226 5.21215 41.0108 5.15143C41.0063 5.09744 41.0136 5.04313 41.0321 4.99222C41.0506 4.94131 41.0799 4.89501 41.118 4.8565L41.1247 4.82969ZM43.4975 8.18113C43.5411 8.37985 43.5411 8.58567 43.4975 8.78439H43.2964C43.2041 8.23512 42.99 7.71346 42.6699 7.25766C42.3498 6.80185 41.9318 6.42344 41.4464 6.15016C41.0778 5.93566 40.7024 5.70777 40.3204 5.52008C41.6676 5.87534 43.1222 6.74671 43.4908 8.21464L43.4975 8.18113ZM42.8876 9.46138C42.8095 9.38186 42.7129 9.32306 42.6064 9.29029C42.4999 9.25752 42.3869 9.25182 42.2776 9.2737C41.9626 9.33403 41.8419 9.69598 41.795 9.94399C41.7481 10.192 41.862 10.2992 41.795 10.4601C41.6683 10.5695 41.5752 10.7126 41.5265 10.8728C41.4779 11.0329 41.4757 11.2036 41.5202 11.365C41.5639 11.4468 41.6272 11.5165 41.7044 11.568C41.7815 11.6194 41.8702 11.651 41.9626 11.6599C41.679 11.8495 41.3338 11.9238 40.9974 11.8677C40.8046 11.8337 40.6159 11.7798 40.4343 11.7068C40.5424 11.7054 40.6483 11.6755 40.7412 11.6202C40.8342 11.5649 40.9109 11.4861 40.9638 11.3918C41.1515 11.1371 40.9638 10.802 41.0376 10.5472C41.1113 10.2925 41.48 9.87696 41.2722 9.46808C41.1974 9.34414 41.0845 9.24773 40.9504 9.19327C41.1308 8.6521 41.1877 8.07742 41.1169 7.5114C41.0462 6.94537 40.8496 6.40238 40.5416 5.92226C41.5872 6.44508 42.6463 7.1891 42.9613 8.36211C43.0136 8.54247 43.0539 8.72608 43.082 8.91174C42.9979 8.98092 42.9346 9.07202 42.8991 9.17494C42.8636 9.27787 42.8573 9.38861 42.8809 9.4949L42.8876 9.46138ZM26.7202 10.4601C26.6666 10.3529 26.7202 10.2188 26.7202 10.125C26.7297 9.97238 26.6995 9.81993 26.6325 9.68249C26.5656 9.54505 26.4642 9.4273 26.3381 9.34073C26.2178 9.29227 26.086 9.27977 25.9587 9.30475C25.8314 9.32974 25.714 9.39114 25.6209 9.48149C25.6389 9.38089 25.6305 9.27733 25.5964 9.18098C25.5623 9.08462 25.5038 8.99878 25.4265 8.93185C25.5069 8.3967 25.7095 7.88728 26.0187 7.4432C26.328 6.99911 26.7355 6.63232 27.2095 6.37135C27.4508 6.22389 27.7122 6.08313 27.9669 5.94237C27.6591 6.42263 27.4632 6.96593 27.3936 7.5321C27.324 8.09827 27.3825 8.67285 27.5648 9.21337C27.4679 9.2483 27.3814 9.30719 27.3135 9.38454C27.2455 9.4619 27.1982 9.5552 27.176 9.65576C27.1023 9.93729 27.3101 10.2523 27.4575 10.5271C27.605 10.802 27.3369 11.1974 27.5849 11.4857C27.7082 11.6258 27.8813 11.7124 28.0675 11.727C27.8323 11.8503 27.5693 11.9107 27.3039 11.9025C27.0385 11.8943 26.7797 11.8176 26.5526 11.68C26.642 11.6697 26.7275 11.6382 26.8021 11.5881C26.8768 11.5379 26.9383 11.4706 26.9816 11.3918C27.1559 11.0768 26.9414 10.7416 26.7202 10.4601ZM27.8597 11.3985C27.5111 11.0969 27.92 10.6813 27.6385 10.3194C27.5044 10.0848 27.3101 9.78982 27.5044 9.54852C27.8195 9.23348 28.2149 9.62225 28.5501 9.66917L28.664 9.78982C28.607 9.93501 28.5894 10.0927 28.6129 10.2469C28.6364 10.4011 28.7003 10.5463 28.7981 10.6679C28.8649 10.7472 28.9441 10.8151 29.0327 10.869C28.998 10.9494 28.9479 11.0223 28.8852 11.0835L28.2149 11.4655C28.1547 11.4802 28.0922 11.4823 28.0311 11.472C27.97 11.4616 27.9117 11.4389 27.8597 11.4052V11.3985ZM33.9392 5.61393C33.9748 5.55714 34.0242 5.51032 34.0828 5.47787C34.1414 5.44542 34.2073 5.4284 34.2744 5.4284C34.3414 5.4284 34.4073 5.44542 34.4659 5.47787C34.5245 5.51032 34.5739 5.55714 34.6095 5.61393C34.6502 5.67683 34.6718 5.75015 34.6718 5.82507C34.6718 5.89998 34.6502 5.9733 34.6095 6.03621C34.5693 6.09824 34.5114 6.14674 34.4432 6.17543C34.3751 6.20412 34.2999 6.21166 34.2274 6.19708C34.1643 6.18874 34.1042 6.16475 34.0527 6.12729C34.0012 6.08983 33.9599 6.04008 33.9325 5.98258C33.9058 5.92579 33.8925 5.86359 33.8936 5.80082C33.8948 5.73806 33.9104 5.6764 33.9392 5.62063V5.61393ZM33.8722 4.90342C33.8542 4.79753 33.8732 4.6887 33.9258 4.59509C33.9712 4.52974 34.0348 4.47907 34.1086 4.4493C34.1824 4.41954 34.2633 4.41196 34.3414 4.42751C34.446 4.45368 34.537 4.51829 34.5961 4.60849C34.6396 4.68581 34.6572 4.77502 34.6463 4.86306C34.6355 4.9511 34.5967 5.03336 34.5358 5.0978C34.4806 5.14354 34.4155 5.17582 34.3457 5.1921C34.2759 5.20839 34.2033 5.20823 34.1336 5.19164C34.0706 5.16922 34.0139 5.13191 33.9684 5.0829C33.9229 5.03389 33.8899 4.97462 33.8722 4.91012V4.90342ZM34.5894 7.10867C34.5316 7.19591 34.443 7.25815 34.3414 7.28294C34.2338 7.29991 34.1238 7.276 34.0331 7.21591C33.9538 7.15584 33.8972 7.07084 33.8722 6.97461C33.861 6.9218 33.8606 6.86728 33.871 6.81431C33.8814 6.76134 33.9023 6.71099 33.9325 6.66628C34.0072 6.57305 34.1155 6.51288 34.2341 6.49871C34.3072 6.49437 34.38 6.51037 34.4444 6.54492C34.5089 6.57948 34.5625 6.63124 34.5993 6.69445C34.6361 6.75766 34.6547 6.82984 34.653 6.90296C34.6512 6.97609 34.6292 7.0473 34.5894 7.10867ZM34.4151 7.70522C34.7436 7.62479 35.139 7.37678 35.3736 7.78566C35.6082 8.19454 35.0184 8.5766 34.891 8.96537C34.7725 8.85517 34.6278 8.77703 34.4706 8.73832C34.3134 8.69962 34.149 8.70163 33.9928 8.74417C33.8532 8.79227 33.7269 8.87265 33.6242 8.97877C33.4566 8.68385 33.2488 8.40233 33.0879 8.1074C33.0669 8.04387 33.0609 7.97636 33.0702 7.91011C33.0795 7.84385 33.1039 7.78063 33.1416 7.72533C33.5236 7.29635 33.9995 7.77896 34.4151 7.68512V7.70522ZM38.3765 9.35413L38.4234 9.48819C38.2835 9.62329 38.1905 9.7996 38.1579 9.99135C38.1254 10.1831 38.155 10.3802 38.2425 10.554C37.9543 10.7041 37.6356 10.7867 37.3108 10.7953C37.2491 10.7964 37.1881 10.7823 37.1331 10.7543C37.0782 10.7262 37.031 10.685 36.9957 10.6344C36.7678 10.1987 37.3711 9.84345 37.2571 9.43457C37.2571 9.20667 37.17 8.95867 37.418 8.76428C37.4799 8.73142 37.549 8.71423 37.6191 8.71423C37.6892 8.71423 37.7583 8.73142 37.8202 8.76428L38.3765 9.35413ZM38.3765 8.40233C38.3836 8.33967 38.4063 8.27981 38.4427 8.22826C38.479 8.17672 38.5277 8.13515 38.5843 8.1074C39.0267 7.95323 39.3417 8.52298 39.7707 8.38892C39.8574 8.36318 39.9485 8.35526 40.0383 8.36562C40.1282 8.37599 40.215 8.40444 40.2935 8.44925C40.3401 8.50791 40.3712 8.57727 40.384 8.65102C40.3969 8.72477 40.3912 8.80057 40.3673 8.87153C40.1729 9.11954 39.9383 9.28711 39.697 9.54182C39.5891 9.40665 39.4441 9.30605 39.2797 9.25244C39.1153 9.19884 38.9388 9.19458 38.772 9.24019L38.6178 9.30051C38.5034 9.00172 38.4115 8.69476 38.343 8.38222L38.3765 8.40233ZM38.2157 8.8045C38.1554 8.71754 38.0753 8.64609 37.9821 8.596C37.8889 8.5459 37.7852 8.51858 37.6794 8.51627C37.5558 8.52096 37.4359 8.55975 37.333 8.62837C37.2301 8.69699 37.1481 8.79274 37.0963 8.90504C36.9488 9.2737 37.1834 9.52171 36.9823 9.85015C36.8776 9.97179 36.8079 10.1196 36.7807 10.2779C36.7535 10.4361 36.77 10.5987 36.8282 10.7483C36.8718 10.8305 36.9337 10.9016 37.0091 10.9561C36.6815 10.9745 36.353 10.9382 36.0372 10.8489C36.1308 10.8185 36.2165 10.768 36.2883 10.7008C36.3601 10.6336 36.4163 10.5514 36.4528 10.4601C36.5869 10.125 36.312 9.85685 36.3523 9.48819C36.3925 9.11953 36.607 8.73747 36.2517 8.41573C36.1667 8.35129 36.0664 8.31001 35.9607 8.29591C35.855 8.28181 35.7474 8.29538 35.6484 8.3353C35.6934 8.24349 35.7168 8.14261 35.7168 8.04037C35.7168 7.93813 35.6934 7.83725 35.6484 7.74544C35.7923 6.699 35.7765 5.63678 35.6015 4.59509C36.0869 4.67239 36.5459 4.86737 36.9385 5.16298C37.3311 5.45859 37.6453 5.84585 37.8537 6.29092C38.0826 6.85546 38.2031 7.45804 38.209 8.06718C38.137 8.17189 38.0962 8.29491 38.0915 8.4219C38.0867 8.54888 38.1182 8.6746 38.1821 8.78439L38.2157 8.8045ZM36.0104 8.55649C36.0835 8.59069 36.146 8.64394 36.1914 8.71066C36.3321 9.02569 36.064 9.38095 36.0908 9.67587C36.1177 9.9708 36.4193 10.3462 36.0573 10.5741C35.6954 10.802 35.4541 10.44 35.1725 10.3797L34.9312 10.1786C35.0463 10.0492 35.1225 9.88998 35.1509 9.71919C35.1794 9.54841 35.159 9.37306 35.0921 9.21337C35.1626 9.06845 35.2409 8.92748 35.3267 8.79109C35.5144 8.67714 35.7289 8.44925 35.9769 8.53638L36.0104 8.55649ZM34.8508 9.89707C34.7969 9.98165 34.7247 10.0531 34.6395 10.106C34.5543 10.159 34.4584 10.1922 34.3586 10.2031C34.2589 10.214 34.1581 10.2024 34.0634 10.1692C33.9688 10.136 33.8828 10.0819 33.8119 10.011C33.7306 9.91361 33.6786 9.79513 33.662 9.66936C33.6454 9.54359 33.6648 9.41568 33.718 9.30051C33.771 9.20018 33.8487 9.11495 33.9436 9.05282C34.0386 8.99068 34.1478 8.95367 34.261 8.94526C34.358 8.94599 34.4538 8.96659 34.5426 9.00578C34.6314 9.04498 34.7112 9.10194 34.7771 9.17316C34.8498 9.27587 34.8921 9.39698 34.8993 9.52263C34.9064 9.64828 34.878 9.7734 34.8173 9.88366L34.8508 9.89707ZM33.2354 8.8112L33.4834 9.21337C33.4106 9.36737 33.3821 9.53857 33.4011 9.70784C33.42 9.87712 33.4857 10.0378 33.5907 10.1719C33.3963 10.4266 33.0276 10.4735 32.7394 10.6277C32.6392 10.6441 32.5364 10.6226 32.4512 10.5674C32.1093 10.2657 32.4512 9.89707 32.4512 9.55522C32.4512 9.21338 32.1428 8.91845 32.4043 8.65033C32.459 8.60143 32.5249 8.5667 32.5962 8.54917C32.6675 8.53165 32.7419 8.53186 32.8131 8.54979L33.2354 8.8112ZM32.8399 7.60468V7.73204C32.8025 7.83368 32.7903 7.94287 32.8043 8.05026C32.8183 8.15766 32.8581 8.26006 32.9204 8.3487C32.8293 8.31292 32.7312 8.29883 32.6338 8.30755C32.5363 8.31627 32.4422 8.34755 32.359 8.39894C32.2757 8.45032 32.2056 8.52038 32.1541 8.60357C32.1026 8.68676 32.0712 8.7808 32.0624 8.87823C32.0222 9.13964 32.2769 9.42787 32.1898 9.71609C32.1026 10.0043 31.9619 10.3864 32.23 10.6947C32.3011 10.7611 32.3826 10.8155 32.4713 10.8556C32.1702 10.9374 31.8577 10.9691 31.5463 10.9494C31.6323 10.8789 31.6994 10.788 31.7415 10.685C31.7837 10.582 31.7995 10.4702 31.7876 10.3596C31.7876 10.0646 31.5128 9.86355 31.4793 9.56863C31.4457 9.2737 31.5865 8.8112 31.1776 8.59671C31.0781 8.53126 30.9616 8.49639 30.8425 8.49639C30.7234 8.49639 30.6069 8.53126 30.5073 8.59671C30.447 8.64363 30.3934 8.70396 30.3264 8.76428C30.3906 8.65446 30.4244 8.52954 30.4244 8.40233C30.4244 8.27511 30.3906 8.15019 30.3264 8.04037C30.3264 7.04834 30.6548 5.70106 31.7072 5.07099C32.1086 4.82514 32.5515 4.65477 33.0142 4.56827C32.7982 5.56045 32.7282 6.57887 32.8064 7.59128L32.8399 7.60468ZM31.0235 8.77769C31.112 8.80741 31.1877 8.86655 31.2379 8.94526C31.372 9.28711 31.1374 9.61555 31.372 9.93729C31.6066 10.259 31.687 10.4534 31.4927 10.6947C31.2983 10.936 30.8224 10.6947 30.5341 10.6947L30.2392 10.5741C30.2701 10.5041 30.2969 10.4325 30.3197 10.3596C30.3641 10.2041 30.3651 10.0395 30.3226 9.88347C30.28 9.72749 30.1956 9.58614 30.0784 9.47479L30.1253 9.32062C30.3867 9.15305 30.6079 8.61012 30.9899 8.76428L31.0235 8.77769ZM29.9309 9.267V9.34073C29.7866 9.26752 29.6247 9.23625 29.4636 9.25047C29.3024 9.26468 29.1485 9.32382 29.0193 9.42116L28.845 9.58203C28.6506 9.34743 28.4093 9.18656 28.1747 8.91174C28.1405 8.83711 28.1275 8.75454 28.1369 8.673C28.1464 8.59146 28.178 8.51407 28.2284 8.44925C28.5032 8.23475 28.8182 8.44925 29.1265 8.342C29.4349 8.23475 29.703 7.91972 30.0247 8.13421C30.3867 8.44925 29.9443 8.87823 29.8974 9.25359L29.9309 9.267ZM29.0528 10.5674C28.9843 10.4897 28.9348 10.3972 28.908 10.2972C28.8813 10.1972 28.8781 10.0924 28.8986 9.99091C28.9234 9.88808 28.9721 9.79258 29.0409 9.7122C29.1096 9.63181 29.1964 9.56884 29.2941 9.52841C29.4111 9.49368 29.5354 9.49156 29.6535 9.52227C29.7716 9.55298 29.8791 9.61536 29.9644 9.70268C30.0555 9.79893 30.1132 9.92197 30.1289 10.0536C30.1446 10.1852 30.1175 10.3183 30.0515 10.4333C30.0038 10.5158 29.9391 10.5871 29.8617 10.6426C29.7842 10.6981 29.6959 10.7364 29.6024 10.755C29.4962 10.7707 29.3878 10.7606 29.2864 10.7256C29.1849 10.6906 29.0933 10.6317 29.0193 10.554L29.0528 10.5674ZM29.9242 10.9159L30.0784 10.8221C30.5508 11.0577 31.0701 11.1843 31.5979 11.1924C32.1258 11.2005 32.6487 11.09 33.1282 10.869C33.4014 10.7244 33.6656 10.5632 33.9191 10.3864L34.0733 10.44C33.7535 10.9088 33.329 11.2966 32.8332 11.5728C32.2557 11.7595 31.641 11.8009 31.0436 11.6934C30.8047 11.6555 30.5774 11.5648 30.3779 11.428C30.1785 11.2912 30.0121 11.1117 29.8907 10.9025L29.9242 10.9159ZM30.7822 11.8744C30.3934 11.9347 29.9979 12.0286 29.6159 12.1224C29.7236 12.0238 29.8074 11.9019 29.8608 11.766C29.9143 11.6301 29.9359 11.4838 29.9242 11.3382C30.1506 11.5791 30.4342 11.7589 30.7486 11.861L30.7822 11.8744ZM34.2878 10.5338C34.5721 10.9367 34.9209 11.29 35.32 11.5795C35.1994 11.5795 35.1591 11.5795 35.0318 11.5795H33.5504H33.2756C33.6529 11.2856 33.9849 10.9378 34.261 10.5472L34.2878 10.5338ZM34.5023 10.4132L34.6631 10.3596C35.0292 10.674 35.4589 10.9057 35.9228 11.0387C36.3867 11.1717 36.8739 11.203 37.351 11.1304C37.7351 11.0566 38.1119 10.9489 38.4771 10.8087L38.6245 10.9025C38.0481 11.861 36.8952 11.794 35.9434 11.6465C35.3423 11.4108 34.8277 10.9968 34.4687 10.4601L34.5023 10.4132ZM38.658 11.3114C38.645 11.4579 38.6647 11.6055 38.7157 11.7434C38.7667 11.8814 38.8478 12.0062 38.953 12.109C38.6044 12.0286 38.1955 11.928 37.7934 11.8543C38.1131 11.7559 38.4002 11.5729 38.6245 11.3248L38.658 11.3114ZM38.4905 10.4601C38.4274 10.3597 38.3939 10.2435 38.3939 10.125C38.3939 10.0064 38.4274 9.89023 38.4905 9.78982C38.5441 9.69593 38.6197 9.61641 38.7107 9.55805C38.8018 9.49969 38.9056 9.46422 39.0133 9.45468C39.1939 9.45521 39.368 9.52199 39.5026 9.64236C39.5765 9.72097 39.6303 9.81625 39.6595 9.92011C39.6886 10.024 39.6923 10.1333 39.6702 10.2389C39.6399 10.3532 39.5799 10.4574 39.4963 10.5409C39.4127 10.6245 39.3085 10.6845 39.1943 10.7148C39.0649 10.7472 38.9289 10.7402 38.8035 10.6949C38.6781 10.6495 38.5691 10.5677 38.4905 10.4601ZM39.9115 10.1116C39.9517 9.98421 39.7372 9.78982 39.9517 9.66917L40.7024 9.42116C40.7709 9.41957 40.8386 9.43608 40.8986 9.46904C40.9586 9.502 41.0089 9.55023 41.0443 9.60884C41.2185 9.9641 40.7762 10.2791 40.7695 10.6411C40.7627 11.003 40.8968 11.1639 40.6421 11.4052C40.2466 11.6733 39.9718 11.1907 39.63 11.0835C39.5647 11.0245 39.5142 10.951 39.4825 10.869C39.6101 10.7887 39.7161 10.6782 39.7909 10.5473C39.8657 10.4163 39.9071 10.269 39.9115 10.1183V10.1116ZM40.1729 4.66212C40.2306 4.58735 40.3144 4.53709 40.4075 4.52135C40.4569 4.51543 40.5069 4.52015 40.5543 4.53518C40.6017 4.55021 40.6454 4.57521 40.6823 4.60849C40.7289 4.65353 40.7622 4.71043 40.7787 4.77304C40.7953 4.83566 40.7944 4.9016 40.7762 4.96374C40.753 5.02663 40.7135 5.08217 40.6616 5.12461C40.6097 5.16704 40.5475 5.19481 40.4812 5.20505C40.3835 5.20682 40.2884 5.17353 40.2131 5.11121C40.156 5.05366 40.1207 4.978 40.1134 4.89725C40.1061 4.8165 40.1271 4.73572 40.1729 4.66882V4.66212ZM40.6823 9.17986H40.4745C40.5575 9.09188 40.6131 8.98166 40.6345 8.86265C40.6559 8.74364 40.6422 8.62096 40.5952 8.50957C40.5275 8.35333 40.4029 8.22872 40.2466 8.16102C40.3687 7.33212 40.2787 6.48581 39.9852 5.70106C40.4092 6.16265 40.6984 6.73173 40.8213 7.34631C40.9442 7.96089 40.8961 8.59741 40.6823 9.18656V9.17986ZM39.9517 7.43711C39.9778 7.49149 39.9914 7.55105 39.9914 7.61138C39.9914 7.67172 39.9778 7.73128 39.9517 7.78566C39.9117 7.83555 39.862 7.87675 39.8055 7.90672C39.749 7.93669 39.687 7.9548 39.6233 7.95994C39.5507 7.95766 39.4802 7.93511 39.4198 7.89483C39.3594 7.85455 39.3114 7.79816 39.2814 7.73204C39.2521 7.67743 39.2367 7.6164 39.2367 7.55441C39.2367 7.49242 39.2521 7.43139 39.2814 7.37678C39.3171 7.32825 39.3635 7.28852 39.4169 7.26064C39.4704 7.23276 39.5295 7.21746 39.5897 7.21591C39.6659 7.21346 39.7411 7.23385 39.8056 7.27447C39.8701 7.31508 39.921 7.37405 39.9517 7.44381V7.43711ZM39.5696 6.88077C39.5022 6.89885 39.4311 6.89844 39.3639 6.87957C39.2967 6.86069 39.2358 6.82406 39.1876 6.77352C39.1328 6.71961 39.0962 6.64992 39.083 6.5742C39.0698 6.49849 39.0806 6.42053 39.1138 6.35124C39.1484 6.29743 39.1935 6.25123 39.2465 6.2155C39.2996 6.17977 39.3593 6.15525 39.4222 6.14345C39.5206 6.14338 39.6166 6.17383 39.697 6.23059C39.7453 6.27249 39.7828 6.32547 39.8061 6.38501C39.8295 6.44455 39.838 6.50886 39.831 6.57244C39.8184 6.64305 39.7876 6.70917 39.7418 6.76438C39.696 6.81958 39.6367 6.86199 39.5696 6.88747V6.88077ZM39.1407 4.51465C39.1645 4.456 39.2029 4.40435 39.2521 4.3645C39.3013 4.32465 39.3598 4.29791 39.4222 4.28675C39.5188 4.28477 39.6133 4.31547 39.6903 4.37389C39.73 4.41152 39.7608 4.45751 39.7805 4.50852C39.8002 4.55953 39.8083 4.61428 39.8042 4.66882C39.7956 4.73113 39.7706 4.79002 39.7317 4.83948C39.6928 4.88894 39.6415 4.9272 39.583 4.95034C39.521 4.9701 39.4548 4.97307 39.3912 4.95894C39.3276 4.94481 39.2689 4.91409 39.2211 4.8699C39.1774 4.8245 39.1469 4.76811 39.1327 4.70674C39.1186 4.64536 39.1213 4.5813 39.1407 4.52135V4.51465ZM39.1407 5.18494C39.1924 5.19592 39.2413 5.21772 39.284 5.24891C39.3267 5.2801 39.3624 5.31998 39.3887 5.36592C39.4217 5.42173 39.4391 5.48539 39.4391 5.55025C39.4391 5.6151 39.4217 5.67876 39.3887 5.73458C39.3524 5.79347 39.3008 5.84141 39.2394 5.87328C39.178 5.90515 39.1091 5.91976 39.0401 5.91555C38.9637 5.91048 38.8905 5.88297 38.8297 5.83646C38.7689 5.78996 38.7232 5.72653 38.6983 5.65414C38.679 5.58943 38.6782 5.52061 38.6959 5.45546C38.7137 5.39032 38.7493 5.33144 38.7988 5.28548C38.8457 5.24187 38.9029 5.21097 38.9651 5.19571C39.0273 5.18046 39.0923 5.18137 39.1541 5.19835L39.1407 5.18494ZM38.4033 4.32027C38.5066 4.31472 38.6086 4.34555 38.6916 4.40741C38.7629 4.47261 38.8101 4.56 38.8256 4.65541C38.8313 4.7239 38.818 4.79261 38.7873 4.85407C38.7565 4.91554 38.7095 4.96738 38.6513 5.00396C38.5854 5.0464 38.5086 5.06896 38.4301 5.06896C38.3517 5.06896 38.2749 5.0464 38.209 5.00396C38.1524 4.95976 38.1097 4.90027 38.086 4.83256C38.0622 4.76484 38.0584 4.69173 38.0749 4.6219C38.097 4.54542 38.1412 4.47721 38.2021 4.4259C38.2629 4.37459 38.3376 4.3425 38.4167 4.33367L38.4033 4.32027ZM37.5387 3.59636C37.6334 3.59328 37.7269 3.61899 37.8068 3.67009C37.8564 3.71269 37.8951 3.76658 37.9196 3.82723C37.9441 3.88788 37.9537 3.95352 37.9475 4.01864C37.9368 4.08196 37.9103 4.14157 37.8705 4.19195C37.8307 4.24232 37.7788 4.28185 37.7196 4.30686C37.6534 4.33417 37.581 4.34298 37.5102 4.33236C37.4394 4.32173 37.3728 4.29207 37.3175 4.24654C37.2657 4.19907 37.2278 4.13849 37.2078 4.07122C37.1877 4.00396 37.1862 3.93251 37.2035 3.86447C37.2314 3.79327 37.279 3.7315 37.3407 3.68639C37.4025 3.64127 37.4758 3.61469 37.5521 3.60976L37.5387 3.59636ZM36.3187 3.24781C36.361 3.21306 36.41 3.18745 36.4626 3.17261C36.5153 3.15776 36.5704 3.154 36.6246 3.16156C36.6788 3.16912 36.7308 3.18783 36.7774 3.21652C36.8239 3.24521 36.8641 3.28326 36.8952 3.32824C36.9345 3.39042 36.9554 3.46247 36.9554 3.53603C36.9554 3.60959 36.9345 3.68165 36.8952 3.74382C36.8451 3.80438 36.7787 3.84923 36.7038 3.873C36.6289 3.89678 36.5487 3.89847 36.4729 3.87788C36.407 3.85647 36.348 3.81785 36.3021 3.76599C36.2561 3.71414 36.2248 3.65095 36.2115 3.58295C36.2061 3.5237 36.2142 3.464 36.235 3.40829C36.2559 3.35259 36.2891 3.30231 36.3321 3.26121L36.3187 3.24781ZM38.3296 5.81501C38.6753 6.43268 38.8791 7.1196 38.9262 7.82588C38.7669 7.76245 38.5894 7.76245 38.4301 7.82588C38.4406 7.24846 38.3106 6.67716 38.0514 6.16109C37.7922 5.64502 37.4115 5.19963 36.9421 4.8632C36.5085 4.60363 36.0317 4.42426 35.5345 4.33367C35.5016 4.2508 35.4747 4.16568 35.4541 4.07896C36.05 4.08042 36.6344 4.244 37.1445 4.55219C37.6546 4.86037 38.0712 5.30154 38.3497 5.82842L38.3296 5.81501ZM35.253 3.13386C35.3049 3.08043 35.3704 3.0422 35.4425 3.0233C35.5145 3.0044 35.5904 3.00554 35.6619 3.02661C35.7497 3.06155 35.823 3.12539 35.8696 3.20759C35.9026 3.26465 35.9199 3.32938 35.9199 3.39527C35.9199 3.46116 35.9026 3.52589 35.8696 3.58295C35.8308 3.63839 35.7783 3.68291 35.7173 3.71225C35.6562 3.74159 35.5887 3.75477 35.5211 3.75052C35.4464 3.74555 35.3749 3.71877 35.3153 3.67349C35.2557 3.62821 35.2107 3.56643 35.1859 3.49581C35.1702 3.43079 35.1699 3.36297 35.185 3.2978C35.2001 3.23262 35.2303 3.17189 35.2731 3.12045L35.253 3.13386ZM34.9916 3.9248C35.0519 3.9248 35.1189 3.98512 35.139 4.03875C35.438 4.89893 35.55 5.81299 35.4675 6.7199L35.4206 7.39019C35.2814 7.28636 35.1115 7.23209 34.9379 7.23602C35.0382 6.15684 35.0359 5.07059 34.9312 3.99183C34.9312 3.99183 34.9312 3.89799 35.0117 3.91139L34.9916 3.9248ZM33.4633 1.79328V1.33078C33.6175 1.29727 33.8856 1.41122 33.9392 1.23024V0.734224H34.5224V1.23694C34.5961 1.40451 34.8441 1.30397 34.9983 1.33078V1.79328H34.4754C34.446 1.81344 34.4241 1.84282 34.4132 1.8768C34.4022 1.91077 34.4029 1.94742 34.4151 1.98096L34.4888 2.43676C34.3205 2.38626 34.1411 2.38626 33.9727 2.43676C34.0057 2.246 34.0281 2.05355 34.0398 1.86031L33.9861 1.79998L33.4633 1.79328ZM33.8588 2.7652C33.9653 2.69862 34.0884 2.66331 34.214 2.66331C34.3397 2.66331 34.4628 2.69862 34.5693 2.7652C34.688 2.83029 34.7857 2.92797 34.8508 3.04672C34.9077 3.15944 34.9316 3.28593 34.9197 3.41164C34.9078 3.53734 34.8607 3.65713 34.7838 3.75723C34.702 3.85115 34.5972 3.92218 34.4797 3.96331C34.3622 4.00445 34.236 4.01427 34.1135 3.99183C33.9841 3.96345 33.866 3.89737 33.7742 3.80193C33.6823 3.70649 33.6208 3.58597 33.5974 3.4556C33.5678 3.32358 33.5788 3.18569 33.6291 3.06008C33.6793 2.93446 33.7664 2.82699 33.8789 2.75179L33.8588 2.7652ZM33.4365 4.00523C33.4557 3.97583 33.4808 3.95073 33.5102 3.9315C33.6711 3.97842 33.5504 4.1527 33.5706 4.25324C33.4678 5.25991 33.4521 6.27357 33.5236 7.28294C33.3405 7.26845 33.1586 7.3235 33.0142 7.43711C32.9052 6.2701 33.0563 5.09345 33.4566 3.99183L33.4365 4.00523ZM32.6724 3.08694C32.723 3.04009 32.7841 3.00594 32.8505 2.98729C32.9169 2.96865 32.9868 2.96604 33.0544 2.97969C33.1442 3.00682 33.2222 3.06352 33.2756 3.14056C33.305 3.19756 33.3204 3.26076 33.3204 3.32489C33.3204 3.38902 33.305 3.45222 33.2756 3.50922C33.2493 3.5822 33.201 3.64524 33.1374 3.68965C33.0738 3.73406 32.998 3.75767 32.9204 3.75723C32.8537 3.75517 32.7886 3.73626 32.7312 3.70228C32.6737 3.66829 32.6258 3.62032 32.5919 3.56284C32.5498 3.48606 32.5348 3.39728 32.5494 3.3109C32.564 3.22452 32.6073 3.1456 32.6724 3.08694ZM31.6669 3.2344C31.7209 3.18898 31.786 3.15881 31.8555 3.14703C31.9251 3.13524 31.9965 3.14227 32.0624 3.16737C32.148 3.20313 32.2189 3.26695 32.2635 3.34835C32.29 3.40142 32.3039 3.45994 32.3039 3.51927C32.3039 3.57861 32.29 3.63713 32.2635 3.6902C32.2234 3.74868 32.1681 3.79509 32.1036 3.82442C32.0391 3.85375 31.9677 3.86488 31.8973 3.85659C31.8269 3.84831 31.7601 3.82094 31.7042 3.77743C31.6482 3.73393 31.6052 3.67595 31.5798 3.60976C31.5683 3.54882 31.5701 3.4861 31.5851 3.42593C31.6002 3.36575 31.6281 3.30956 31.6669 3.26121V3.2344ZM30.7352 3.62987C30.8223 3.5861 30.9222 3.57487 31.0168 3.59822C31.1115 3.62157 31.1946 3.67796 31.2514 3.75723C31.294 3.82358 31.3138 3.90205 31.3078 3.9807C31.3017 4.05935 31.2701 4.13386 31.2178 4.19291C31.1673 4.24633 31.1032 4.28511 31.0324 4.30517C30.9616 4.32522 30.8868 4.32581 30.8157 4.30686C30.7471 4.28475 30.686 4.24434 30.6387 4.19001C30.5915 4.13567 30.5599 4.06946 30.5476 3.99853C30.5473 3.93031 30.5644 3.86314 30.5972 3.80334C30.63 3.74353 30.6775 3.69307 30.7352 3.65668V3.62987ZM31.8345 4.30016C32.263 4.14103 32.7182 4.06593 33.1751 4.07896L33.0812 4.31357C32.4948 4.37648 31.9361 4.5965 31.4642 4.95041C30.9923 5.30432 30.6247 5.77902 30.4001 6.32443C30.213 6.82533 30.1045 7.35214 30.0784 7.8862C29.9171 7.82098 29.7369 7.82098 29.5756 7.8862C29.6494 6.492 30.3934 4.8699 31.8345 4.30686V4.30016ZM29.9778 4.33367C30.086 4.32283 30.1946 4.34881 30.2861 4.40741C30.3282 4.43923 30.363 4.47956 30.3884 4.52575C30.4138 4.57195 30.4292 4.62298 30.4336 4.67552C30.4341 4.74716 30.4159 4.81769 30.3806 4.88004C30.3453 4.94239 30.2942 4.99437 30.2325 5.03077C30.1718 5.06363 30.1038 5.08083 30.0348 5.08083C29.9657 5.08083 29.8978 5.06363 29.837 5.03077C29.7725 4.98524 29.7237 4.92083 29.6973 4.84641C29.6709 4.77199 29.6682 4.69121 29.6896 4.6152C29.7102 4.54862 29.7475 4.48842 29.798 4.44032C29.8484 4.39222 29.9103 4.35782 29.9778 4.34038V4.33367ZM29.3947 5.17824C29.4684 5.17193 29.5425 5.18612 29.6088 5.21923C29.675 5.25235 29.7308 5.30311 29.77 5.36592C29.809 5.42576 29.8297 5.49561 29.8297 5.56701C29.8297 5.6384 29.809 5.70825 29.77 5.76809C29.7111 5.83958 29.6315 5.89108 29.5421 5.91555C29.4733 5.92645 29.4029 5.91989 29.3373 5.89646C29.2717 5.87304 29.2131 5.83351 29.1668 5.7815C29.1209 5.72189 29.0934 5.65027 29.0874 5.57532C29.0815 5.50037 29.0974 5.42531 29.1332 5.35922C29.1974 5.2724 29.2899 5.21075 29.3947 5.18494V5.17824ZM28.8986 4.32027C28.9791 4.28694 29.0692 4.28496 29.1511 4.31474C29.233 4.34452 29.3007 4.40388 29.341 4.48114C29.3709 4.5383 29.3836 4.60285 29.3776 4.66705C29.3717 4.73125 29.3473 4.79238 29.3075 4.84309C29.2644 4.89677 29.2066 4.93676 29.1411 4.95818C29.0757 4.9796 29.0054 4.98153 28.9389 4.96374C28.873 4.94142 28.8144 4.90153 28.7695 4.84838C28.7246 4.79522 28.6951 4.73082 28.6842 4.66212C28.6836 4.59062 28.7035 4.52047 28.7415 4.45991C28.7795 4.39935 28.834 4.35091 28.8986 4.32027ZM28.8383 6.21048C28.9267 6.15777 29.0321 6.14158 29.1323 6.16536C29.2324 6.18914 29.3193 6.25101 29.3745 6.33784C29.4106 6.39748 29.4297 6.46586 29.4297 6.53557C29.4297 6.60528 29.4106 6.67366 29.3745 6.73331C29.3248 6.79496 29.2592 6.8419 29.1848 6.86906C29.1104 6.89622 29.03 6.90259 28.9523 6.88747C28.886 6.86357 28.8267 6.82345 28.7798 6.77076C28.733 6.71807 28.7001 6.6545 28.6842 6.58584C28.675 6.51393 28.6858 6.44088 28.7153 6.37468C28.7449 6.30848 28.7921 6.25168 28.8517 6.21048H28.8383ZM28.5635 7.417C28.5964 7.35865 28.6441 7.30998 28.7017 7.27586C28.7594 7.24174 28.825 7.22338 28.8919 7.22262C28.9615 7.22005 29.0304 7.23725 29.0907 7.27222C29.1509 7.3072 29.2 7.35852 29.2322 7.42024C29.2645 7.48197 29.2786 7.55157 29.273 7.62098C29.2673 7.6904 29.2421 7.75679 29.2003 7.81247C29.1583 7.86682 29.1027 7.90909 29.0392 7.93499C28.9756 7.9609 28.9063 7.9695 28.8383 7.95994C28.7737 7.94586 28.7131 7.91748 28.6609 7.87688C28.6087 7.83628 28.5662 7.7845 28.5367 7.72533C28.5196 7.67425 28.5143 7.61995 28.5213 7.56653C28.5282 7.51312 28.5473 7.46198 28.5769 7.417H28.5635ZM28.5099 5.68095C28.2095 6.46879 28.1216 7.32179 28.2552 8.15432C28.1524 8.19054 28.0614 8.25391 27.9918 8.33771C27.9221 8.4215 27.8765 8.52258 27.8597 8.63022C27.8428 8.72596 27.8486 8.82431 27.8765 8.91742C27.9045 9.01052 27.9538 9.09581 28.0206 9.16645H27.8061C27.6081 8.60673 27.5547 8.00607 27.6508 7.42019C27.7468 6.83431 27.9893 6.28218 28.3557 5.81501L28.5099 5.68095ZM27.9401 4.54146C28.0109 4.51632 28.0881 4.51521 28.1596 4.5383C28.2311 4.56139 28.293 4.6074 28.3357 4.6692C28.3784 4.73101 28.3996 4.80518 28.396 4.88023C28.3923 4.95528 28.364 5.02703 28.3155 5.0844C28.2487 5.15247 28.1617 5.19714 28.0675 5.21175C27.9758 5.20461 27.8899 5.16406 27.8262 5.0978C27.7888 5.0588 27.7599 5.01242 27.7415 4.96164C27.723 4.91086 27.7153 4.85679 27.7189 4.80288C27.7314 4.74243 27.7597 4.68639 27.8009 4.64046C27.8421 4.59453 27.8948 4.56037 27.9535 4.54146H27.9401ZM27.0889 4.77606C27.1424 4.76882 27.1969 4.77283 27.2489 4.78783C27.3008 4.80283 27.349 4.8285 27.3905 4.8632C27.4337 4.90636 27.4655 4.95959 27.4831 5.01809C27.5006 5.07658 27.5034 5.13853 27.491 5.19835C27.4782 5.24591 27.4555 5.29022 27.4243 5.32835C27.3931 5.36647 27.3541 5.39755 27.3101 5.41954C27.2531 5.44812 27.1893 5.46021 27.1259 5.45447C27.0625 5.44873 27.0019 5.42538 26.951 5.38704C26.9001 5.34871 26.861 5.29693 26.838 5.23753C26.8149 5.17813 26.809 5.11349 26.8208 5.05088C26.8369 4.98317 26.872 4.92142 26.9218 4.87278C26.9716 4.82415 27.0342 4.79061 27.1023 4.77606H27.0889ZM26.003 5.35922C26.0315 5.30773 26.072 5.26382 26.121 5.23117C26.1699 5.19852 26.226 5.17807 26.2845 5.17154C26.3868 5.17552 26.4843 5.21594 26.5593 5.28548C26.6061 5.34049 26.635 5.40844 26.6422 5.48029C26.6494 5.55214 26.6345 5.62448 26.5996 5.68766C26.5714 5.73687 26.5316 5.77847 26.4837 5.80884C26.4358 5.8392 26.3813 5.85743 26.3247 5.86193C26.2548 5.86341 26.1859 5.84456 26.1264 5.80768C26.0669 5.7708 26.0194 5.71747 25.9896 5.65414C25.9721 5.60603 25.9655 5.55466 25.9701 5.50369C25.9748 5.45272 25.9906 5.40339 26.0164 5.35922H26.003ZM26.2912 6.43838C26.8718 6.01928 27.5305 5.72072 28.2284 5.5603C27.1023 6.11664 25.8555 6.86066 25.44 8.08059C25.3556 8.32307 25.2906 8.57186 25.2456 8.82461C25.1812 8.81455 25.1156 8.81455 25.0512 8.82461C24.8769 7.90631 25.5472 6.97461 26.2912 6.43838ZM25.3863 5.76809C25.4527 5.74385 25.5246 5.73917 25.5935 5.75462C25.6624 5.77007 25.7255 5.80499 25.7751 5.85523C25.8211 5.90064 25.8517 5.95937 25.8626 6.02313C25.8734 6.08688 25.8639 6.15242 25.8354 6.21048C25.8179 6.25625 25.791 6.29782 25.7563 6.33247C25.7217 6.36712 25.6801 6.39407 25.6343 6.41157C25.5702 6.43092 25.5019 6.43241 25.437 6.41587C25.372 6.39934 25.3128 6.36541 25.2657 6.31773C25.2021 6.23829 25.1709 6.13769 25.1785 6.03621C25.1897 5.97834 25.2143 5.92392 25.2504 5.87734C25.2865 5.83076 25.3331 5.79333 25.3863 5.76809ZM24.8099 6.43838C24.9021 6.42995 24.9945 6.45362 25.0713 6.50541C25.121 6.54614 25.1595 6.59896 25.183 6.65882C25.2065 6.71868 25.2142 6.78357 25.2054 6.84726C25.1881 6.91904 25.1493 6.98384 25.0942 7.03296C25.0391 7.08208 24.9703 7.11318 24.897 7.12207C24.7993 7.12384 24.7042 7.09055 24.6289 7.02823C24.5858 6.98511 24.5546 6.93164 24.5381 6.87294C24.5217 6.81425 24.5206 6.75231 24.5351 6.69309C24.561 6.63903 24.5994 6.59195 24.6472 6.5558C24.695 6.51965 24.7508 6.49548 24.8099 6.4853V6.43838ZM24.1396 7.37678C24.1846 7.3325 24.241 7.30154 24.3025 7.28734C24.364 7.27314 24.4283 7.27626 24.4881 7.29635C24.5724 7.3342 24.6427 7.39748 24.6892 7.47733C24.7173 7.53768 24.7271 7.60491 24.7175 7.67076C24.7079 7.73661 24.6793 7.79823 24.6351 7.84805C24.591 7.89787 24.5333 7.93372 24.4691 7.95122C24.4049 7.96871 24.337 7.96708 24.2737 7.94653C24.2183 7.92898 24.1683 7.89761 24.1285 7.85539C24.0886 7.81317 24.0601 7.76149 24.0458 7.70522C24.0382 7.65423 24.0428 7.60217 24.0591 7.55326C24.0754 7.50436 24.103 7.45997 24.1396 7.4237V7.37678ZM23.8648 8.65704C23.8528 8.56335 23.8741 8.46844 23.9251 8.38892C23.9677 8.33646 24.0244 8.29725 24.0885 8.27588C24.1526 8.25451 24.2215 8.25187 24.2871 8.26827C24.338 8.28174 24.3851 8.30679 24.4247 8.34146C24.4643 8.37613 24.4954 8.41949 24.5155 8.46815C24.5356 8.51681 24.5442 8.56945 24.5406 8.62198C24.537 8.67451 24.5214 8.7255 24.4948 8.77098C24.4573 8.8307 24.4028 8.8779 24.3384 8.90655C24.2739 8.93519 24.2024 8.94401 24.1329 8.93185C24.0723 8.92042 24.0156 8.89339 23.9686 8.85343C23.9216 8.81347 23.8858 8.76196 23.8648 8.70396V8.65704ZM24.582 10.4869C24.2188 10.2367 23.9479 9.87398 23.8112 9.45468C23.8112 9.45468 23.8112 9.39435 23.8112 9.37424C23.9653 9.2804 24.1329 9.4949 24.2804 9.37424C24.5485 9.25359 24.7697 9.01229 25.0579 8.97877C25.1054 8.97834 25.1525 8.98763 25.1963 9.00607C25.2401 9.02452 25.2797 9.05172 25.3126 9.08602C25.5003 9.38765 25.3126 9.69598 25.2456 10.0177L25.1919 10.192C25.1028 10.1572 25.0052 10.1501 24.9119 10.1716C24.8186 10.1931 24.734 10.2423 24.6691 10.3126C24.6151 10.3739 24.5842 10.4522 24.582 10.5338V10.4869ZM24.8032 10.7416C24.9926 10.9543 25.116 11.2175 25.1584 11.4991C25.0437 11.4206 24.9509 11.3142 24.8887 11.1898C24.8266 11.0655 24.7971 10.9274 24.8032 10.7886V10.7416ZM25.5472 11.5795C25.5071 11.6285 25.4493 11.6598 25.3863 11.6666C25.3861 11.4545 25.3405 11.2449 25.2527 11.0519C25.1648 10.8588 25.0367 10.6867 24.8769 10.5472C24.8434 10.5472 24.8769 10.5472 24.8769 10.5472C24.9141 10.5241 24.9571 10.5118 25.0009 10.5118C25.0448 10.5118 25.0877 10.5241 25.1249 10.5472C25.3266 10.6477 25.4807 10.8235 25.5539 11.0366C25.6208 11.2118 25.6184 11.406 25.5472 11.5795ZM26.6532 12.2498C26.3442 12.0691 26.0641 11.8431 25.822 11.5795C25.8667 11.3659 25.8529 11.1442 25.7821 10.9377C25.7113 10.7313 25.5862 10.5478 25.4198 10.4065C25.5874 10.125 25.6209 9.62895 26.0365 9.53511C26.1045 9.52567 26.1737 9.53732 26.2348 9.56849C26.296 9.59966 26.3461 9.64884 26.3784 9.70939C26.4794 9.91802 26.5009 10.1564 26.4387 10.3797C26.4387 10.7014 26.9548 10.9494 26.7403 11.3181C26.5727 11.4789 26.2242 11.4052 26.2845 11.7001C26.369 11.8129 26.4756 11.9073 26.5977 11.9776C26.7199 12.0479 26.8551 12.0926 26.995 12.109C27.4567 12.1444 27.9196 12.0577 28.3373 11.8577C28.7549 11.6577 29.1126 11.3514 29.3745 10.9695H29.6091C29.6555 11.122 29.6657 11.2831 29.639 11.4402C29.6122 11.5973 29.5492 11.7459 29.455 11.8744C29.0639 12.1787 28.5987 12.3732 28.1075 12.438C27.6162 12.5028 27.1165 12.4355 26.6599 12.2431L26.6532 12.2498ZM40.8633 13.0407C40.9314 13.0685 40.9911 13.1133 41.0369 13.1708C41.0827 13.2283 41.1129 13.2966 41.1247 13.3692C41.1238 13.4109 41.1144 13.4521 41.0971 13.4901C41.0799 13.5281 41.055 13.5622 41.0242 13.5904C40.9814 13.6163 40.9337 13.6332 40.8842 13.6401C40.8346 13.647 40.7842 13.6438 40.7359 13.6306C36.5177 12.1693 31.9305 12.1693 27.7122 13.6306C27.626 13.6297 27.5412 13.6091 27.4642 13.5702C27.4257 13.5314 27.3986 13.4828 27.3856 13.4297C27.3726 13.3765 27.3743 13.3209 27.3905 13.2686C27.4776 13.0675 27.7122 12.9938 27.8999 12.9268C29.093 12.434 30.3501 12.1135 31.6334 11.975C31.9744 11.9758 32.3143 11.9353 32.6456 11.8543C33.706 11.794 34.769 11.794 35.8294 11.8543C36.2164 11.9422 36.6123 11.9849 37.0091 11.9817C38.339 12.1502 39.6386 12.5044 40.87 13.034L40.8633 13.0407ZM42.6798 11.5862C42.3006 12.0471 41.7716 12.3603 41.185 12.471C40.4198 12.5712 39.6461 12.3639 39.0334 11.8945C38.9443 11.7661 38.8864 11.6186 38.8643 11.4638C38.8422 11.3091 38.8565 11.1513 38.9061 11.003C38.9815 11.0161 39.0585 11.0161 39.1339 11.003C39.4075 11.4152 39.7957 11.7383 40.2507 11.9325C40.7057 12.1266 41.2076 12.1834 41.6944 12.0956C41.9022 12.0286 42.1637 11.9213 42.2307 11.6934C42.231 11.653 42.2198 11.6132 42.1984 11.5788C42.1771 11.5444 42.1464 11.5168 42.11 11.4991C41.9693 11.432 41.7749 11.4521 41.7146 11.2645C41.614 10.9226 42.11 10.688 42.0497 10.3194C42.0195 10.2048 42.0159 10.0849 42.0391 9.96868C42.0624 9.85252 42.1118 9.74319 42.1838 9.64906C42.2227 9.61061 42.271 9.58296 42.3239 9.56886C42.3768 9.55475 42.4325 9.55467 42.4854 9.56863C42.5985 9.59169 42.699 9.65625 42.7669 9.7496C42.9345 9.93058 42.9345 10.2054 43.0752 10.4199C42.9147 10.5623 42.7942 10.7443 42.726 10.9478C42.6578 11.1513 42.6442 11.3691 42.6865 11.5795L42.6798 11.5862ZM42.9278 11.546C42.8878 11.3965 42.8865 11.2393 42.924 11.0892C42.9615 10.9391 43.0367 10.8011 43.1423 10.688C43.2495 10.5674 43.4238 10.44 43.5914 10.507C43.5914 10.507 43.5914 10.507 43.6316 10.507C43.3274 10.7755 43.1358 11.149 43.0954 11.5527V11.6398C43.0631 11.6348 43.0323 11.6233 43.0046 11.606C42.977 11.5887 42.9531 11.566 42.9345 11.5393L42.9278 11.546ZM43.3501 11.546C43.3966 11.2636 43.5194 10.9994 43.7053 10.7818C43.7189 10.9286 43.6939 11.0763 43.6328 11.2103C43.5716 11.3444 43.4765 11.4601 43.3568 11.546H43.3501ZM44.6906 9.53511C44.5336 9.92511 44.2714 10.2639 43.9332 10.5137C43.9072 10.4476 43.8675 10.3877 43.8167 10.338C43.7658 10.2883 43.705 10.25 43.6383 10.2255C43.5326 10.1994 43.4222 10.1994 43.3166 10.2255C43.2006 9.91854 43.135 9.59488 43.1222 9.267C43.1383 9.20542 43.1714 9.14957 43.2175 9.10575C43.2637 9.06194 43.3212 9.03189 43.3836 9.01899C43.8193 8.97207 44.1142 9.58874 44.5298 9.36754C44.5752 9.35058 44.6251 9.35058 44.6705 9.36754C44.7175 9.43457 44.6973 9.52171 44.6906 9.56192V9.53511Z" fill="#1C1C1B"/>
</g>
</svg>
